<svg width="1528" height="219" viewBox="0 0 1528 219" fill="none" xmlns="http://www.w3.org/2000/svg">
<g filter="url(#filter0_di_69_243)">
<path d="M93.8404 63.2571C92.948 55.7209 89.3286 49.8703 82.9822 45.7055C76.6359 41.5407 68.8517 39.4583 59.6297 39.4583C52.8867 39.4583 46.9866 40.5491 41.9293 42.7307C36.9216 44.9122 33.0048 47.9119 30.1787 51.7296C27.4021 55.5473 26.0139 59.8856 26.0139 64.7445C26.0139 68.8102 26.9807 72.3056 28.9144 75.2309C30.8976 78.1066 33.4262 80.5112 36.5002 82.4449C39.5742 84.329 42.797 85.8908 46.1685 87.1303C49.54 88.3202 52.6388 89.287 55.4649 90.0308L70.9341 94.1955C74.9005 95.2367 79.3132 96.6746 84.1721 98.5091C89.0807 100.344 93.766 102.847 98.2283 106.021C102.74 109.144 106.459 113.16 109.384 118.069C112.309 122.977 113.772 129.001 113.772 136.141C113.772 144.371 111.615 151.808 107.302 158.452C103.038 165.096 96.7905 170.376 88.56 174.293C80.3792 178.21 70.4383 180.169 58.7372 180.169C47.8294 180.169 38.3843 178.409 30.4018 174.888C22.4688 171.368 16.2217 166.46 11.6602 160.163C7.14838 153.866 4.59497 146.553 4 138.223H23.039C23.5348 143.975 25.4685 148.734 28.84 152.503C32.2611 156.221 36.5746 158.998 41.7806 160.832C47.0361 162.617 52.6883 163.51 58.7372 163.51C65.7777 163.51 72.0992 162.369 77.7019 160.088C83.3045 157.758 87.742 154.535 91.0143 150.42C94.2866 146.255 95.9228 141.396 95.9228 135.843C95.9228 130.786 94.5097 126.671 91.6836 123.498C88.8575 120.325 85.139 117.746 80.528 115.763C75.9169 113.78 70.9341 112.045 65.5794 110.557L46.8378 105.202C34.9384 101.781 25.5181 96.8977 18.5768 90.5514C11.6354 84.205 8.16479 75.9002 8.16479 65.637C8.16479 57.1091 10.4703 49.672 15.0813 43.3257C19.7419 36.9297 25.9891 31.9716 33.8228 28.4514C41.7062 24.8816 50.5068 23.0967 60.2246 23.0967C70.0416 23.0967 78.7678 24.8568 86.4033 28.377C94.0387 31.8477 100.088 36.6074 104.55 42.6563C109.062 48.7052 111.442 55.5721 111.689 63.2571H93.8404Z" fill="#252525"/>
<path d="M438.022 177.491V25.1791H491.271C501.882 25.1791 510.633 27.0136 517.525 30.6826C524.416 34.3019 529.548 39.1856 532.919 45.3337C536.291 51.4321 537.977 58.1999 537.977 65.637C537.977 72.1817 536.811 77.586 534.481 81.8499C532.2 86.1139 529.176 89.4854 525.408 91.9644C521.689 94.4434 517.648 96.2779 513.285 97.4679V98.9553C517.946 99.2528 522.631 100.889 527.341 103.864C532.052 106.839 535.993 111.103 539.167 116.656C542.34 122.209 543.926 129.001 543.926 137.033C543.926 144.669 542.191 151.536 538.72 157.634C535.25 163.733 529.771 168.567 522.284 172.137C514.798 175.706 505.055 177.491 493.056 177.491H438.022ZM456.466 161.13H493.056C505.105 161.13 513.657 158.799 518.714 154.139C523.821 149.429 526.375 143.727 526.375 137.033C526.375 131.877 525.061 127.117 522.433 122.754C519.805 118.341 516.062 114.821 511.203 112.193C506.344 109.516 500.593 108.177 493.949 108.177H456.466V161.13ZM456.466 92.1131H490.677C496.23 92.1131 501.237 91.0224 505.699 88.8408C510.211 86.6593 513.781 83.5853 516.409 79.6188C519.086 75.6523 520.425 70.9917 520.425 65.637C520.425 58.9436 518.095 53.2666 513.434 48.606C508.773 43.8958 501.386 41.5407 491.271 41.5407H456.466V92.1131Z" fill="#252525"/>
<path d="M593.196 25.1791V177.491H574.752V25.1791H593.196Z" fill="#252525"/>
<path d="M630.46 177.491V25.1791H722.382V41.5407H648.904V93.0056H717.623V109.367H648.904V161.13H723.572V177.491H630.46Z" fill="#252525"/>
<path d="M244.69 25.1791H263.134V126.026C263.134 136.438 260.68 145.735 255.771 153.916C250.912 162.047 244.045 168.468 235.17 173.178C226.295 177.838 215.883 180.169 203.934 180.169C191.985 180.169 181.573 177.838 172.698 173.178C163.823 168.468 156.932 162.047 152.023 153.916C147.164 145.735 144.735 136.438 144.735 126.026V25.1791H163.179V124.539C163.179 131.976 164.815 138.595 168.087 144.396C171.36 150.147 176.02 154.684 182.069 158.006C188.168 161.278 195.456 162.915 203.934 162.915C212.413 162.915 219.701 161.278 225.799 158.006C231.898 154.684 236.558 150.147 239.781 144.396C243.054 138.595 244.69 131.976 244.69 124.539V25.1791Z" fill="#252525"/>
<path d="M300.846 177.491V25.1791H354.095C364.706 25.1791 373.457 27.0136 380.348 30.6826C387.24 34.3019 392.372 39.1856 395.743 45.3337C399.115 51.4321 400.8 58.1999 400.8 65.637C400.8 72.1817 399.635 77.586 397.305 81.8499C395.024 86.1139 392 89.4854 388.232 91.9644C384.513 94.4434 380.472 96.2779 376.109 97.4679V98.9553C380.77 99.2528 385.455 100.889 390.165 103.864C394.876 106.839 398.817 111.103 401.99 116.656C405.164 122.209 406.75 129.001 406.75 137.033C406.75 144.669 405.015 151.536 401.544 157.634C398.073 163.733 392.595 168.567 385.108 172.137C377.621 175.706 367.879 177.491 355.88 177.491H300.846ZM319.29 161.13H355.88C367.928 161.13 376.481 158.799 381.538 154.139C386.645 149.429 389.199 143.727 389.199 137.033C389.199 131.877 387.885 127.117 385.257 122.754C382.629 118.341 378.886 114.821 374.027 112.193C369.168 109.516 363.416 108.177 356.773 108.177H319.29V161.13ZM319.29 92.1131H353.5C359.053 92.1131 364.061 91.0224 368.523 88.8408C373.035 86.6593 376.605 83.5853 379.233 79.6188C381.91 75.6523 383.249 70.9917 383.249 65.637C383.249 58.9436 380.919 53.2666 376.258 48.606C371.597 43.8958 364.21 41.5407 354.095 41.5407H319.29V92.1131Z" fill="#252525"/>
<path d="M897.862 75.109C897.149 69.0799 894.253 64.3995 889.176 61.0677C884.099 57.7358 877.872 56.0699 870.494 56.0699C865.1 56.0699 860.379 56.9425 856.334 58.6878C852.327 60.433 849.194 62.8327 846.933 65.8869C844.712 68.9411 843.601 72.4118 843.601 76.2989C843.601 79.5514 844.375 82.3477 845.922 84.688C847.508 86.9885 849.531 88.9122 851.99 90.4592C854.45 91.9664 857.028 93.2159 859.725 94.2075C862.422 95.1594 864.901 95.9329 867.162 96.5279L879.537 99.8597C882.711 100.693 886.241 101.843 890.128 103.311C894.055 104.778 897.803 106.781 901.373 109.32C904.982 111.819 907.957 115.031 910.297 118.958C912.638 122.885 913.808 127.704 913.808 133.416C913.808 140 912.082 145.95 908.631 151.265C905.22 156.58 900.223 160.804 893.638 163.938C887.094 167.071 879.141 168.638 869.78 168.638C861.054 168.638 853.498 167.23 847.112 164.414C840.765 161.598 835.768 157.671 832.118 152.633C828.509 147.596 826.466 141.746 825.99 135.082H841.221C841.618 139.683 843.165 143.491 845.862 146.505C848.599 149.48 852.05 151.701 856.215 153.169C860.419 154.597 864.941 155.311 869.78 155.311C875.412 155.311 880.47 154.399 884.952 152.574C889.434 150.71 892.984 148.132 895.602 144.839C898.219 141.508 899.528 137.62 899.528 133.178C899.528 129.132 898.398 125.84 896.137 123.301C893.876 120.763 890.901 118.7 887.213 117.114C883.524 115.527 879.537 114.139 875.254 112.949L860.26 108.665C850.741 105.928 843.205 102.021 837.652 96.9443C832.099 91.8673 829.322 85.2234 829.322 77.0129C829.322 70.1905 831.166 64.2408 834.855 59.1638C838.584 54.047 843.581 50.0806 849.848 47.2644C856.155 44.4085 863.196 42.9806 870.97 42.9806C878.823 42.9806 885.804 44.3887 891.913 47.2049C898.021 49.9814 902.86 53.7892 906.43 58.6283C910.04 63.4674 911.943 68.9609 912.142 75.109H897.862Z" fill="#F40B0B"/>
<path fill-rule="evenodd" clip-rule="evenodd" d="M925.914 9.42432H812.822C800.677 9.42432 790.832 19.2696 790.832 31.4144V179.062C790.832 191.207 800.677 201.052 812.822 201.052H925.914C938.059 201.052 947.904 191.207 947.904 179.062V31.4144C947.904 19.2696 938.059 9.42432 925.914 9.42432ZM812.822 0C795.472 0 781.408 14.0647 781.408 31.4144V179.062C781.408 196.412 795.472 210.476 812.822 210.476H925.914C943.264 210.476 957.328 196.412 957.328 179.062V31.4144C957.328 14.0647 943.264 0 925.914 0H812.822Z" fill="#F40B0B"/>
<path d="M812.13 25.2267C812.041 24.4731 811.679 23.8881 811.044 23.4716C810.41 23.0551 809.631 22.8469 808.709 22.8469C808.035 22.8469 807.445 22.9559 806.939 23.1741C806.438 23.3922 806.047 23.6922 805.764 24.074C805.486 24.4558 805.348 24.8896 805.348 25.3755C805.348 25.782 805.444 26.1316 805.638 26.4241C805.836 26.7117 806.089 26.9521 806.396 27.1455C806.704 27.3339 807.026 27.4901 807.363 27.6141C807.7 27.733 808.01 27.8297 808.293 27.9041L809.84 28.3206C810.236 28.4247 810.677 28.5685 811.163 28.7519C811.654 28.9354 812.123 29.1858 812.569 29.5031C813.02 29.8154 813.392 30.217 813.685 30.7079C813.977 31.1987 814.123 31.8012 814.123 32.5151C814.123 33.3382 813.908 34.0819 813.476 34.7463C813.05 35.4106 812.425 35.9387 811.602 36.3304C810.784 36.722 809.79 36.9179 808.62 36.9179C807.529 36.9179 806.585 36.7419 805.786 36.3899C804.993 36.0378 804.368 35.547 803.912 34.9173C803.461 34.2876 803.206 33.5563 803.146 32.7234H805.05C805.1 33.2985 805.293 33.7745 805.63 34.1513C805.972 34.5231 806.404 34.8008 806.924 34.9842C807.45 35.1627 808.015 35.252 808.62 35.252C809.324 35.252 809.956 35.1379 810.516 34.9099C811.077 34.6768 811.52 34.3546 811.848 33.943C812.175 33.5266 812.338 33.0407 812.338 32.4854C812.338 31.9796 812.197 31.5681 811.914 31.2508C811.632 30.9335 811.26 30.6757 810.799 30.4773C810.338 30.279 809.84 30.1055 809.304 29.9567L807.43 29.4213C806.24 29.0792 805.298 28.5908 804.604 27.9562C803.91 27.3215 803.563 26.491 803.563 25.4647C803.563 24.6119 803.793 23.8682 804.254 23.2336C804.72 22.594 805.345 22.0982 806.128 21.7462C806.917 21.3892 807.797 21.2107 808.769 21.2107C809.75 21.2107 810.623 21.3867 811.386 21.7387C812.15 22.0858 812.755 22.5618 813.201 23.1667C813.652 23.7715 813.89 24.4582 813.915 25.2267H812.13Z" fill="#F40B0B"/>
<path d="M927.653 191.533C927.742 192.286 928.104 192.871 928.739 193.288C929.374 193.704 930.152 193.913 931.074 193.913C931.749 193.913 932.339 193.803 932.844 193.585C933.345 193.367 933.737 193.067 934.019 192.685C934.297 192.304 934.436 191.87 934.436 191.384C934.436 190.977 934.339 190.628 934.146 190.335C933.947 190.048 933.695 189.807 933.387 189.614C933.08 189.425 932.758 189.269 932.42 189.145C932.083 189.026 931.773 188.93 931.491 188.855L929.944 188.439C929.547 188.335 929.106 188.191 928.62 188.007C928.129 187.824 927.661 187.574 927.214 187.256C926.763 186.944 926.391 186.542 926.099 186.052C925.806 185.561 925.66 184.958 925.66 184.244C925.66 183.421 925.876 182.678 926.307 182.013C926.733 181.349 927.358 180.821 928.181 180.429C928.999 180.037 929.993 179.842 931.163 179.842C932.254 179.842 933.199 180.018 933.997 180.37C934.79 180.722 935.415 181.212 935.871 181.842C936.322 182.472 936.578 183.203 936.637 184.036H934.733C934.684 183.461 934.49 182.985 934.153 182.608C933.811 182.236 933.38 181.959 932.859 181.775C932.334 181.597 931.768 181.507 931.163 181.507C930.459 181.507 929.827 181.621 929.267 181.85C928.707 182.083 928.263 182.405 927.936 182.816C927.609 183.233 927.445 183.719 927.445 184.274C927.445 184.78 927.586 185.191 927.869 185.509C928.151 185.826 928.523 186.084 928.984 186.282C929.446 186.48 929.944 186.654 930.479 186.803L932.353 187.338C933.543 187.68 934.485 188.169 935.18 188.803C935.874 189.438 936.221 190.268 936.221 191.295C936.221 192.147 935.99 192.891 935.529 193.526C935.063 194.165 934.438 194.661 933.655 195.013C932.867 195.37 931.987 195.549 931.015 195.549C930.033 195.549 929.16 195.373 928.397 195.021C927.633 194.674 927.028 194.198 926.582 193.593C926.131 192.988 925.893 192.301 925.868 191.533H927.653Z" fill="#F40B0B"/>
<path d="M1106.68 45.1702V167.02H1092.4L1026 71.3488H1024.81V167.02H1010.06V45.1702H1024.34L1090.97 141.079H1092.16V45.1702H1106.68Z" fill="#252525"/>
<path fill-rule="evenodd" clip-rule="evenodd" d="M1115.45 9.948H1002.36C990.211 9.948 980.366 19.7933 980.366 31.9381V179.586C980.366 191.73 990.211 201.576 1002.36 201.576H1115.45C1127.59 201.576 1137.44 191.73 1137.44 179.586V31.9381C1137.44 19.7933 1127.59 9.948 1115.45 9.948ZM1002.36 0.523682C985.006 0.523682 970.941 14.5884 970.941 31.9381V179.586C970.941 196.935 985.006 211 1002.36 211H1115.45C1132.8 211 1146.86 196.935 1146.86 179.586V31.9381C1146.86 14.5884 1132.8 0.523682 1115.45 0.523682H1002.36Z" fill="#252525"/>
<path d="M1000.02 21.9426V37.1738H998.232L989.932 25.215H989.783V37.1738H987.939V21.9426H989.724L998.053 33.9313H998.202V21.9426H1000.02Z" fill="#252525"/>
<path d="M1113.6 195.864V180.633H1115.38L1123.68 192.592H1123.83V180.633H1125.68V195.864H1123.89L1115.56 183.875H1115.41V195.864H1113.6Z" fill="#252525"/>
<path d="M1212.1 167.02H1196.63L1241.37 45.1702H1256.6L1301.35 167.02H1285.88L1249.46 64.4472H1248.51L1212.1 167.02ZM1217.81 119.422H1280.16V132.512H1217.81V119.422Z" fill="#F40B0B"/>
<path fill-rule="evenodd" clip-rule="evenodd" d="M1306.03 9.948H1192.94C1180.79 9.948 1170.95 19.7933 1170.95 31.9381V179.586C1170.95 191.73 1180.79 201.576 1192.94 201.576H1306.03C1318.17 201.576 1328.02 191.73 1328.02 179.586V31.9381C1328.02 19.7933 1318.17 9.948 1306.03 9.948ZM1192.94 0.523682C1175.59 0.523682 1161.52 14.5884 1161.52 31.9381V179.586C1161.52 196.935 1175.59 211 1192.94 211H1306.03C1323.38 211 1337.44 196.935 1337.44 179.586V31.9381C1337.44 14.5884 1323.38 0.523682 1306.03 0.523682H1192.94Z" fill="#F40B0B"/>
<path d="M1188.33 37.1738H1186.4L1191.99 21.9426H1193.89L1199.48 37.1738H1197.55L1193 24.3523H1192.88L1188.33 37.1738ZM1189.04 31.2242H1196.84V32.8603H1189.04V31.2242Z" fill="#F40B0B"/>
<path d="M1313.78 180.633H1315.71L1310.12 195.864H1308.21L1302.62 180.633H1304.55L1309.11 193.455H1309.23L1313.78 180.633ZM1313.06 186.583H1305.27V184.946H1313.06V186.583Z" fill="#F40B0B"/>
<path d="M1397.45 167.02V45.1702H1438.63C1448.19 45.1702 1456 46.8956 1462.07 50.3464C1468.18 53.7576 1472.7 58.3785 1475.63 64.2092C1478.57 70.0399 1480.04 76.5449 1480.04 83.7242C1480.04 90.9035 1478.57 97.4283 1475.63 103.299C1472.74 109.169 1468.26 113.849 1462.19 117.34C1456.12 120.791 1448.34 122.516 1438.86 122.516H1409.35V109.427H1438.39C1444.93 109.427 1450.19 108.296 1454.15 106.036C1458.12 103.775 1461 100.72 1462.78 96.873C1464.61 92.9859 1465.52 88.6029 1465.52 83.7242C1465.52 78.8454 1464.61 74.4823 1462.78 70.6349C1461 66.7874 1458.1 63.7729 1454.1 61.5913C1450.09 59.3701 1444.77 58.2595 1438.15 58.2595H1412.21V167.02H1397.45Z" fill="#252525"/>
<path fill-rule="evenodd" clip-rule="evenodd" d="M1492.42 9.948H1379.33C1367.18 9.948 1357.34 19.7933 1357.34 31.9381V179.586C1357.34 191.73 1367.18 201.576 1379.33 201.576H1492.42C1504.56 201.576 1514.41 191.73 1514.41 179.586V31.9381C1514.41 19.7933 1504.56 9.948 1492.42 9.948ZM1379.33 0.523682C1361.98 0.523682 1347.91 14.5884 1347.91 31.9381V179.586C1347.91 196.935 1361.98 211 1379.33 211H1492.42C1509.77 211 1523.83 196.935 1523.83 179.586V31.9381C1523.83 14.5884 1509.77 0.523682 1492.42 0.523682H1379.33Z" fill="#252525"/>
<path d="M1369.29 37.1738V21.9426H1374.44C1375.63 21.9426 1376.61 22.1583 1377.37 22.5897C1378.13 23.0161 1378.7 23.5937 1379.06 24.3225C1379.43 25.0513 1379.61 25.8645 1379.61 26.7619C1379.61 27.6593 1379.43 28.4749 1379.06 29.2087C1378.7 29.9425 1378.14 30.5275 1377.38 30.9639C1376.62 31.3952 1375.65 31.6109 1374.47 31.6109H1370.78V29.9747H1374.41C1375.22 29.9747 1375.88 29.8334 1376.38 29.5508C1376.87 29.2682 1377.23 28.8864 1377.46 28.4055C1377.68 27.9196 1377.8 27.3717 1377.8 26.7619C1377.8 26.152 1377.68 25.6066 1377.46 25.1257C1377.23 24.6448 1376.87 24.268 1376.37 23.9953C1375.87 23.7176 1375.21 23.5788 1374.38 23.5788H1371.13V37.1738H1369.29Z" fill="#252525"/>
<path d="M1499.32 180.633V195.864H1494.17C1492.98 195.864 1492 195.648 1491.24 195.217C1490.48 194.791 1489.91 194.213 1489.54 193.484C1489.18 192.755 1488.99 191.942 1488.99 191.045C1488.99 190.147 1489.18 189.332 1489.54 188.598C1489.91 187.864 1490.47 187.279 1491.23 186.843C1491.98 186.412 1492.96 186.196 1494.14 186.196H1497.83V187.832H1494.2C1493.38 187.832 1492.73 187.973 1492.23 188.256C1491.73 188.539 1491.37 188.92 1491.15 189.401C1490.92 189.887 1490.81 190.435 1490.81 191.045C1490.81 191.655 1490.92 192.2 1491.15 192.681C1491.37 193.162 1491.74 193.539 1492.24 193.811C1492.74 194.089 1493.4 194.228 1494.23 194.228H1497.47V180.633H1499.32Z" fill="#252525"/>
</g>
<defs>
<filter id="filter0_di_69_243" x="0" y="0" width="1527.83" height="219" filterUnits="userSpaceOnUse" color-interpolation-filters="sRGB">
<feFlood flood-opacity="0" result="BackgroundImageFix"/>
<feColorMatrix in="SourceAlpha" type="matrix" values="0 0 0 0 0 0 0 0 0 0 0 0 0 0 0 0 0 0 127 0" result="hardAlpha"/>
<feOffset dy="4"/>
<feGaussianBlur stdDeviation="2"/>
<feComposite in2="hardAlpha" operator="out"/>
<feColorMatrix type="matrix" values="0 0 0 0 0 0 0 0 0 0 0 0 0 0 0 0 0 0 0.25 0"/>
<feBlend mode="normal" in2="BackgroundImageFix" result="effect1_dropShadow_69_243"/>
<feBlend mode="normal" in="SourceGraphic" in2="effect1_dropShadow_69_243" result="shape"/>
<feColorMatrix in="SourceAlpha" type="matrix" values="0 0 0 0 0 0 0 0 0 0 0 0 0 0 0 0 0 0 127 0" result="hardAlpha"/>
<feOffset dy="4"/>
<feGaussianBlur stdDeviation="2"/>
<feComposite in2="hardAlpha" operator="arithmetic" k2="-1" k3="1"/>
<feColorMatrix type="matrix" values="0 0 0 0 0 0 0 0 0 0 0 0 0 0 0 0 0 0 0.25 0"/>
<feBlend mode="normal" in2="shape" result="effect2_innerShadow_69_243"/>
</filter>
</defs>
</svg>
