<svg xmlns="http://www.w3.org/2000/svg" shape-rendering="geometricPrecision" text-rendering="geometricPrecision" image-rendering="optimizeQuality" fill-rule="evenodd" clip-rule="evenodd" viewBox="0 0 466 511.963"><path fill="#0183E5" d="M389.936 407.915c-14.04-10.427-28.934-21.173-36.759-25.607-19.559-11.169-22.837-38.57-14.408-39.74 3.337-.463 14.431 5.327 27.253 12.987 29.56 17.66 74.927 47.316 93.526 76.329 4.229 6.596 6.799 13.084 6.414 18.887-.293 4.446-2.787 7.708-8.265 9.367-39.594 15.213-74.422 31.852-102.828 50.41-2.42 1.347-4.619 1.695-6.63 1.203-6.713-1.64-12.586-15.647-14.457-21.588-2.694-8.553-1.685-13.59 5.18-18.338 13.516-9.346 28.999-16.228 44.546-22.91-111.908-7.208-204.019-54.797-269.926-126.746C40.667 242.569-.088 133.192 0 15.805.005 9.082.578 5.308 4.081 2.492 7.245-.05 11.223-.219 18.199.144 29.014.707 35.028 2.768 39.008 9.34c3.402 5.62 4.254 13.816 5.08 27.421.244 4.014.618 8.023.884 12.037 6.551 98.573 45.367 189.538 110.101 255.33 58.576 59.533 138.436 98.473 234.863 103.787z"/></svg>