<svg width="100" height="100" viewBox="0 0 100 100" fill="none" xmlns="http://www.w3.org/2000/svg">
<path d="M45.1362 44.6281H53.1128L56.4202 100H42.0234L45.1362 44.6281Z" fill="black"/>
<path d="M100 58.0578C100 71.4084 88.6765 82.2313 74.7082 82.2313C60.7399 82.2313 49.4163 71.4084 49.4163 58.0578C49.4163 44.7071 60.7399 33.8842 74.7082 33.8842C88.6765 33.8842 100 44.7071 100 58.0578Z" fill="black"/>
<path d="M49.4163 58.0578C49.4163 71.4084 38.3541 82.2313 24.7082 82.2313C11.0622 82.2313 0 71.4084 0 58.0578C0 44.7071 11.0622 33.8842 24.7082 33.8842C38.3541 33.8842 49.4163 44.7071 49.4163 58.0578Z" fill="black"/>
<path d="M70.0389 24.7934C70.0389 38.4864 60.7187 49.5868 49.2218 49.5868C37.7248 49.5868 28.4047 38.4864 28.4047 24.7934C28.4047 11.1004 37.7248 0 49.2218 0C60.7187 0 70.0389 11.1004 70.0389 24.7934Z" fill="black"/>
</svg>
