<svg width="100" height="100" viewBox="0 0 100 100" fill="none" xmlns="http://www.w3.org/2000/svg">
<path d="M49.7063 12.4149L89.2146 56.2075L49.7063 100L10.198 56.2075L49.7063 12.4149Z" fill="#FF0000"/>
<path d="M57.4713 31.8517C57.4713 49.4429 44.6059 63.7034 28.7356 63.7034C12.8654 63.7034 0 49.4429 0 31.8517C0 14.2605 12.8654 0 28.7356 0C44.6059 0 57.4713 14.2605 57.4713 31.8517Z" fill="#FF0000"/>
<path d="M100 31.8517C100 49.4429 87.1346 63.7034 71.2644 63.7034C55.3941 63.7034 42.5287 49.4429 42.5287 31.8517C42.5287 14.2605 55.3941 0 71.2644 0C87.1346 0 100 14.2605 100 31.8517Z" fill="#FF0000"/>
</svg>
