<?xml version="1.0" encoding="utf-8"?>
<!-- Generator: Adobe Illustrator 27.5.0, SVG Export Plug-In . SVG Version: 6.00 Build 0)  -->
<svg version="1.1" xmlns="http://www.w3.org/2000/svg" xmlns:xlink="http://www.w3.org/1999/xlink" x="0px" y="0px"
	 viewBox="0 0 500 500" style="enable-background:new 0 0 500 500;" xml:space="preserve">
<g id="Background">
	<rect style="fill:#FFFFFF;" width="500" height="500"/>
</g>
<g id="Objects">
	<g>
		<g>
			<g>
				<path style="fill:#739BF4;" d="M246.092,483.991c-139.799-3.117-194.53-10.445-225.084-72.073
					c-30.554-61.629,14.258-100.277,14.258-146.237c0-45.96-24.443-67.895,14.259-141.013
					c38.702-73.119,123.235-43.871,159.901-69.985c36.665-26.113,100.828-59.539,177.215-24.024
					c76.385,35.515,89.626,104.455,80.46,171.306c-9.167,66.852-2.037,109.677,13.239,150.415
					C495.619,393.116,480.341,489.214,246.092,483.991"/>
				<path style="fill:#A2BFF4;" d="M467.102,201.963c3.109-22.685,3.635-45.609-0.007-67.387c-1.075-0.068-2.16-0.072-3.256,0.015
					c-7.504,0.594-14.033,4.788-19.049,10.371c-11.17,12.429-16.98,29.817-19.918,46.171c-0.072,0.394-0.566,0.451-0.816,0.221
					c-12.286-11.312-35.87-5.594-41.111,10.779c-0.152,0.477-0.787,0.476-0.941,0c-4.47-13.95-19.298-5.677-27.121-0.115
					c-4.902,3.485-8.621,8.195-10.24,14.147c-1.576,5.796-1.65,11.858-1.657,17.834c-0.001,0.529-0.64,0.64-0.908,0.252
					c-8.46-12.169-36.839-15.281-39.068,3.748c-0.061,0.517-0.835,0.731-0.958,0.133c-5.039-24.485-41.596-27.989-56.712-11.779
					c-0.325,0.348-0.783,0.048-0.832-0.354c-3.006-24.321-39.61-14.247-45.95,4.164c-0.011,1.227-0.291,2.584-0.919,4.088
					c-0.189,0.452-0.957,0.229-0.909-0.252c0.14-1.386,0.443-2.737,0.887-4.047c-0.086-7.029-10.648-8.826-16.699-8.268
					c-9.865,0.91-20.69,6.417-22.233,17.448c-0.08,0.572-0.952,0.413-0.957-0.133c-0.073-8.107-2.4-17.989-9.533-22.672
					c-7.913-5.194-16.574-0.868-22.786,5.025c-0.352,0.333-0.949,0.01-0.815-0.486c2.709-10.016,2.813-23.205-6.022-30.235
					c-9.033-7.188-20.856-3.257-29.338,2.8c-0.422,0.302-0.885-0.271-0.667-0.684c5.049-9.531,7.017-20.568,4.4-31.188
					c-3.988-16.189-16.991-30.047-32.61-34.829c-3.557-1.089-7.29-1.723-11.007-1.725c-38.445,72.844-14.082,94.787-14.082,140.675
					c0,45.96-44.812,84.608-14.258,146.237c30.554,61.628,85.285,68.956,225.084,72.073
					c234.249,5.223,249.527-90.875,234.249-131.612C465.064,311.641,457.935,268.815,467.102,201.963z"/>
				<g>
					<path style="fill:#A2BFF4;" d="M376.624,78.505c0-2.393,1.893-4.333,4.226-4.333c2.334,0,4.225,1.94,4.225,4.333
						c0,2.393-1.891,4.333-4.225,4.333C378.517,82.838,376.624,80.898,376.624,78.505"/>
					<path style="fill:#A2BFF4;" d="M363.232,94.709c0-4.328,3.422-7.836,7.642-7.836c4.221,0,7.643,3.508,7.643,7.836
						s-3.422,7.836-7.643,7.836C366.654,102.545,363.232,99.037,363.232,94.709"/>
					<path style="fill:#A2BFF4;" d="M276.195,55c0-2.209,1.746-4,3.899-4s3.9,1.791,3.9,4s-1.747,4-3.9,4S276.195,57.209,276.195,55
						"/>
					<path style="fill:#A2BFF4;" d="M200.446,188.669c0-2.209,1.747-4,3.9-4c2.153,0,3.9,1.791,3.9,4s-1.747,4-3.9,4
						C202.192,192.669,200.446,190.878,200.446,188.669"/>
					<path style="fill:#A2BFF4;" d="M213.983,27.177c0-2.393,1.892-4.333,4.225-4.333c2.335,0,4.226,1.94,4.226,4.333
						c0,2.394-1.891,4.333-4.226,4.333C215.875,31.51,213.983,29.571,213.983,27.177"/>
					<path style="fill:#A2BFF4;" d="M194.573,47.757c-2.215-3.085-1.574-7.429,1.435-9.702c3.008-2.272,7.244-1.612,9.458,1.473
						c2.216,3.085,1.574,7.429-1.434,9.702C201.024,51.502,196.788,50.843,194.573,47.757"/>
				</g>
			</g>
			<g>
				<path style="fill:#7F93BF;" d="M12.512,388.333c1.677,7.499,4.406,15.335,8.496,23.585
					c30.554,61.628,85.285,68.956,225.084,72.073c179.073,3.992,230.18-51.225,237.495-95.658H12.512z"/>
				<path style="fill:#647AA0;" d="M181.672,452.398c0,6.543-33.586,11.847-75.018,11.847c-41.432,0-75.019-5.304-75.019-11.847
					c0-6.543,33.587-11.848,75.019-11.848C148.086,440.551,181.672,445.855,181.672,452.398z"/>
				<path style="fill:#647AA0;" d="M451.831,450.398c0,6.543-33.587,11.847-75.018,11.847c-41.432,0-75.02-5.304-75.02-11.847
					c0-6.543,33.588-11.848,75.02-11.848C418.244,438.551,451.831,443.855,451.831,450.398z"/>
				<path style="fill:#647AA0;" d="M368.15,408.049c0,6.601-52.271,11.951-116.748,11.951c-64.479,0-116.75-5.351-116.75-11.951
					c0-6.601,52.271-11.953,116.75-11.953C315.88,396.096,368.15,401.448,368.15,408.049z"/>
			</g>
		</g>
		<g>
			<polygon style="fill:#222E56;" points="469.5,261 469.5,173.5 452.5,173.5 452.5,126.5 452.5,60.5 405,60.5 405,126.5 394,126.5 
				394,173.5 394,261 349,261 349,201.5 321,201.5 321,60.5 258.688,98.5 258.688,261 196,261 196,201.5 153.5,201.5 153.5,125 
				94.5,125 94.5,215 43.5,215 43.5,261 28,261 28,388 258.688,388 321,388 469.5,388 			"/>
			<rect x="105.571" y="134.25" style="fill:#B8C9F1;" width="10.054" height="10.75"/>
			<rect x="119.696" y="134.25" style="fill:#B8C9F1;" width="10.054" height="10.75"/>
			<rect x="133.821" y="134.25" style="fill:#B8C9F1;" width="10.054" height="10.75"/>
			<rect x="105.571" y="148.75" style="fill:#B8C9F1;" width="10.054" height="10.75"/>
			<rect x="119.696" y="148.75" style="fill:#B8C9F1;" width="10.054" height="10.75"/>
			<rect x="133.821" y="148.75" style="fill:#B8C9F1;" width="10.054" height="10.75"/>
			<rect x="105.571" y="163.25" style="fill:#B8C9F1;" width="10.054" height="10.75"/>
			<rect x="119.696" y="163.25" style="fill:#B8C9F1;" width="10.054" height="10.75"/>
			<rect x="133.821" y="163.25" style="fill:#B8C9F1;" width="10.054" height="10.75"/>
			<rect x="412.875" y="69.75" style="fill:#B8C9F1;" width="8.29" height="8.755"/>
			<rect x="424.522" y="69.75" style="fill:#B8C9F1;" width="8.29" height="8.755"/>
			<rect x="436.169" y="69.75" style="fill:#B8C9F1;" width="8.289" height="8.755"/>
			<rect x="412.875" y="81.625" style="fill:#B8C9F1;" width="8.29" height="8.755"/>
			<rect x="424.522" y="81.625" style="fill:#B8C9F1;" width="8.29" height="8.755"/>
			<rect x="436.169" y="81.625" style="fill:#B8C9F1;" width="8.289" height="8.755"/>
			<rect x="412.875" y="93.5" style="fill:#B8C9F1;" width="8.29" height="8.755"/>
			<rect x="424.522" y="93.5" style="fill:#B8C9F1;" width="8.29" height="8.755"/>
			<rect x="436.169" y="93.5" style="fill:#B8C9F1;" width="8.289" height="8.755"/>
			<rect x="424.522" y="105.375" style="fill:#B8C9F1;" width="8.29" height="8.755"/>
			<rect x="436.169" y="105.375" style="fill:#B8C9F1;" width="8.289" height="8.755"/>
			<rect x="436.169" y="117.25" style="fill:#B8C9F1;" width="8.289" height="8.755"/>
			<rect x="163.364" y="212.25" style="fill:#B8C9F1;" width="10.053" height="10.75"/>
			<rect x="177.489" y="212.25" style="fill:#B8C9F1;" width="10.053" height="10.75"/>
			<rect x="163.364" y="226.75" style="fill:#B8C9F1;" width="10.053" height="10.75"/>
			<rect x="177.489" y="226.75" style="fill:#B8C9F1;" width="10.053" height="10.75"/>
			<rect x="177.489" y="241.25" style="fill:#B8C9F1;" width="10.053" height="10.75"/>
			<rect x="318.029" y="207.583" style="fill:#B8C9F1;" width="10.054" height="10.75"/>
			<rect x="332.154" y="207.583" style="fill:#B8C9F1;" width="10.054" height="10.75"/>
			<rect x="332.154" y="222.083" style="fill:#B8C9F1;" width="10.054" height="10.75"/>
		</g>
		<g>
			<rect x="162.292" y="144.666" style="fill:#D3562F;" width="31.625" height="27.167"/>
			<rect x="374.646" y="186.25" style="fill:#444449;" width="1.25" height="23"/>
			<path style="fill:#444449;" d="M381.896,183.5h-13.25v-36.354h13.25V183.5z M369.896,182.25h10.75v-33.854h-10.75V182.25z"/>
			<rect x="367.083" y="144.334" style="fill:#D3562F;" width="16.375" height="5.574"/>
			<path style="fill:#616068;" d="M226.289,155.959v20.833v1.333v19.5v1.334v19.5v1.333v19.5v1.333v19.5v1.333v19.5v1.334v19.5
				v1.333v19.5v1.333v19.5v1.334v19.5v1.333v20.833h22.252v-20.833v-1.333v-19.5v-1.334v-19.5v-1.333v-19.5v-1.333v-19.5v-1.334
				v-19.5v-1.333v-19.5v-1.333v-19.5v-1.333v-19.5v-1.334v-19.5v-1.333v-20.833H226.289z M236.53,167.042l-8.991,8.954v-17.908
				L236.53,167.042z M228.427,157.209h17.976l-8.988,8.951L228.427,157.209z M246.319,178.125l-8.904,8.868l-8.904-8.868H246.319z
				 M228.511,176.792l8.904-8.868l8.904,8.868H228.511z M236.53,187.875l-8.991,8.954v-17.908L236.53,187.875z M246.319,198.959
				l-8.904,8.867l-8.904-8.867H246.319z M228.511,197.625l8.904-8.868l8.904,8.868H228.511z M236.53,208.708l-8.991,8.954v-17.908
				L236.53,208.708z M246.32,219.792l-8.905,8.868l-8.904-8.868H246.32z M228.511,218.459l8.904-8.869l8.905,8.869H228.511z
				 M236.53,229.542l-8.991,8.954v-17.908L236.53,229.542z M246.319,240.625l-8.904,8.868l-8.904-8.868H246.319z M228.511,239.292
				l8.904-8.868l8.904,8.868H228.511z M236.53,250.375l-8.991,8.954v-17.908L236.53,250.375z M246.32,261.458l-8.905,8.869
				l-8.905-8.869H246.32z M228.51,260.125l8.905-8.868l8.905,8.868H228.51z M236.53,271.209l-8.991,8.954v-17.909L236.53,271.209z
				 M246.319,282.292l-8.904,8.868l-8.904-8.868H246.319z M228.511,280.958l8.904-8.868l8.904,8.868H228.511z M236.53,292.041
				l-8.991,8.955v-17.909L236.53,292.041z M246.32,303.125l-8.905,8.868l-8.905-8.868H246.32z M228.51,301.792l8.905-8.869
				l8.905,8.869H228.51z M236.53,312.875l-8.991,8.954v-17.908L236.53,312.875z M246.32,323.958l-8.905,8.869l-8.905-8.869H246.32z
				 M228.51,322.625l8.905-8.868l8.905,8.868H228.51z M236.53,333.709l-8.991,8.954v-17.909L236.53,333.709z M246.319,344.792
				l-8.904,8.868l-8.904-8.868H246.319z M228.511,343.458l8.904-8.868l8.904,8.868H228.511z M236.53,354.541l-8.991,8.955v-17.909
				L236.53,354.541z M246.32,365.625l-8.905,8.868l-8.905-8.868H246.32z M228.51,364.292l8.905-8.869l8.905,8.869H228.51z
				 M236.53,375.375l-8.991,8.954v-17.908L236.53,375.375z M237.415,376.257l8.989,8.951h-17.977L237.415,376.257z M238.301,375.375
				l8.99-8.954v17.908L238.301,375.375z M238.301,354.541l8.99-8.954v17.909L238.301,354.541z M238.301,333.709l8.99-8.955v17.909
				L238.301,333.709z M238.301,312.875l8.99-8.954v17.908L238.301,312.875z M238.301,292.041l8.99-8.954v17.909L238.301,292.041z
				 M238.301,271.209l8.99-8.955v17.909L238.301,271.209z M238.301,250.375l8.99-8.954v17.908L238.301,250.375z M238.301,229.542
				l8.99-8.954v17.908L238.301,229.542z M238.301,208.708l8.99-8.954v17.908L238.301,208.708z M238.301,187.875l8.99-8.954v17.908
				L238.301,187.875z M238.301,167.042l8.99-8.954v17.908L238.301,167.042z"/>
			<path style="fill:#616068;" d="M366.832,123.208h-1.333h-19.5h-1.333h-19.5h-1.334h-19.5h-1.333h-19.5h-1.333h-19.5h-1.334
				h-19.499h-1.334h-19.5h-1.333h-19.5h-1.333h-19.5h-1.334h-20.833v22.252h20.833h1.334h19.5h1.333h19.5h1.333h19.5h1.334h19.499
				h1.334h19.5h1.333h19.5h1.333h19.5h1.334h19.5h1.333h19.5h1.333h20.834v-22.252H366.832z M177.203,124.458l-8.954,8.99
				l-8.954-8.99H177.203z M158.416,125.346l8.951,8.988l-8.951,8.988V125.346z M159.295,144.21l8.954-8.99l8.954,8.99H159.295z
				 M177.999,143.237l-8.868-8.904l8.868-8.904V143.237z M198.036,124.458l-8.954,8.99l-8.954-8.99H198.036z M179.333,125.43
				l8.867,8.904l-8.867,8.904V125.43z M180.128,144.21l8.954-8.99l8.954,8.99H180.128z M198.833,143.237l-8.869-8.904l8.869-8.904
				V143.237z M218.87,124.458l-8.954,8.99l-8.954-8.99H218.87z M200.166,125.43l8.868,8.904l-8.868,8.904V125.43z M200.962,144.21
				l8.954-8.99l8.954,8.99H200.962z M219.666,143.237l-8.868-8.904l8.868-8.904V143.237z M239.703,124.458l-8.954,8.99l-8.954-8.99
				H239.703z M220.999,125.43l8.868,8.904l-8.868,8.904V125.43z M221.795,144.21l8.954-8.99l8.954,8.99H221.795z M240.499,143.237
				l-8.868-8.904l8.868-8.904V143.237z M260.537,124.458l-8.955,8.991l-8.954-8.991H260.537z M241.833,125.43l8.868,8.904
				l-8.868,8.904V125.43z M242.628,144.21l8.954-8.991l8.955,8.991H242.628z M261.332,143.237l-8.868-8.904l8.868-8.904V143.237z
				 M281.37,124.458l-8.954,8.991l-8.955-8.991H281.37z M262.666,125.43l8.868,8.904l-8.868,8.904V125.43z M263.461,144.21
				l8.955-8.991l8.954,8.991H263.461z M282.166,143.238l-8.869-8.905l8.869-8.905V143.238z M302.203,124.458l-8.954,8.991
				l-8.954-8.991H302.203z M283.499,125.429l8.868,8.905l-8.868,8.905V125.429z M284.295,144.21l8.954-8.991l8.954,8.991H284.295z
				 M302.999,143.238l-8.868-8.905l8.868-8.905V143.238z M323.037,124.458l-8.955,8.991l-8.954-8.991H323.037z M304.332,125.429
				l8.869,8.905l-8.869,8.905V125.429z M305.128,144.21l8.954-8.991l8.955,8.991H305.128z M323.832,143.237l-8.868-8.904
				l8.868-8.904V143.237z M343.87,124.458l-8.954,8.991l-8.955-8.991H343.87z M325.166,125.43l8.868,8.904l-8.868,8.904V125.43z
				 M325.961,144.21l8.955-8.991l8.954,8.991H325.961z M344.666,143.238l-8.869-8.905l8.869-8.905V143.238z M364.703,124.458
				l-8.954,8.991l-8.954-8.991H364.703z M345.999,125.429l8.868,8.905l-8.868,8.905V125.429z M346.795,144.21l8.954-8.991
				l8.954,8.991H346.795z M365.499,143.238l-8.868-8.905l8.868-8.905V143.238z M386.416,143.321l-8.952-8.988l8.952-8.988V143.321z
				 M385.537,124.458l-8.955,8.991l-8.954-8.991H385.537z M366.832,125.429l8.869,8.905l-8.869,8.905V125.429z M367.628,144.21
				l8.954-8.991l8.955,8.991H367.628z"/>
			<path style="fill:#616068;" d="M226.289,64.959v20.833v1.333v20.834h22.252V87.125v-1.333V64.959H226.289z M236.53,76.042
				l-8.991,8.954V67.088L236.53,76.042z M228.427,66.209h17.976l-8.988,8.951L228.427,66.209z M246.319,87.125l-8.904,8.868
				l-8.904-8.868H246.319z M228.511,85.792l8.904-8.868l8.904,8.868H228.511z M236.53,96.875l-8.991,8.954V87.921L236.53,96.875z
				 M237.415,97.757l8.988,8.952h-17.976L237.415,97.757z M238.301,96.875l8.99-8.954v17.908L238.301,96.875z M238.301,76.042
				l8.99-8.954v17.908L238.301,76.042z"/>
			<rect x="221.625" y="106.875" style="fill:#D3562F;" width="31.625" height="50.625"/>
			<rect x="226.289" y="114.341" style="fill:#ED8037;" width="22.252" height="35.622"/>
			<path style="fill:#807F84;" d="M368.77,183.375c0-3.59,2.91-6.5,6.5-6.5c3.59,0,6.5,2.91,6.5,6.5c0,3.59-2.91,6.5-6.5,6.5
				C371.681,189.875,368.77,186.965,368.77,183.375"/>
			<path style="fill:#807F84;" d="M375.27,216.5c-2.171,0-3.938-1.767-3.938-3.937c0-2.171,1.768-3.938,3.938-3.938
				s3.939,1.767,3.939,3.938C379.209,214.733,377.441,216.5,375.27,216.5 M375.27,209.875c-1.481,0-2.688,1.206-2.688,2.688
				c0,1.481,1.207,2.687,2.688,2.687c1.482,0,2.689-1.206,2.689-2.687C377.959,211.081,376.752,209.875,375.27,209.875"/>
			<rect x="354.708" y="214.625" style="fill:#ED8037;" width="41.125" height="36"/>
			<rect x="354.708" y="214.625" style="fill:#D3562F;" width="41.125" height="30.042"/>
			<path style="fill:#444449;" d="M178.333,124.459c-0.141,0-0.283-0.047-0.4-0.145c-0.265-0.221-0.301-0.615-0.079-0.88
				l48.583-58.25c0.22-0.265,0.614-0.302,0.88-0.08c0.265,0.221,0.301,0.615,0.079,0.88l-48.583,58.25
				C178.69,124.381,178.512,124.459,178.333,124.459"/>
			<path style="fill:#444449;" d="M387.041,124.458c-0.081,0-0.163-0.016-0.241-0.049L247.842,66.16
				c-0.319-0.133-0.468-0.499-0.335-0.818c0.133-0.318,0.498-0.468,0.818-0.334l138.957,58.249c0.318,0.133,0.469,0.499,0.335,0.818
				C387.517,124.314,387.285,124.458,387.041,124.458"/>
		</g>
		<g>
			<g>
				<polygon style="fill:#D18574;" points="215.375,294 214.438,299.438 229.125,326.75 238.375,325.25 221.5,295.563 217.125,292 
									"/>
				<path style="fill:#D3562F;" d="M210.688,267c0,0,1.75,0.688,3.25,2.625s7.563,25.938,7.563,25.938l-7.063,3.876
					c0,0-5-14.814-5.25-15.939S210.688,267,210.688,267"/>
				<path style="fill:#E67E22;" d="M201.188,263.875c-1.712-0.399-5.992-0.72-9.738-0.935c-3.775-0.218-7.137,2.357-7.91,6.058
					c-2.763,13.217-8.875,42.634-9.164,45.628c-0.375,3.875,3.5,42.25,3,48s-9.876,39.125-9.876,39.125l8.876,2.75
					c0,0,14.374-37.5,15.624-43.5c1.251-6,0.625-30.5,0.625-30.5l2.751-0.125c0,0,4,23.75,5.375,30.625
					c1.374,6.875-2.376,41-2.376,41l8.25,0.5c0,0,6.001-32.5,6.251-41.75s-6.626-39.25-5.876-47.5
					c0.571-6.28,4.91-28.789,6.948-39.177c0.631-3.215-1.15-6.399-4.214-7.56C207.366,265.616,204.384,264.621,201.188,263.875"/>
				<path style="fill:#F4C29D;" d="M201.188,263.875c-0.95-0.222-2.692-0.419-4.693-0.587c-0.007,0.59,0.049,1.197,0.182,1.813
					c0.755,3.492,3.582,5.844,6.315,5.253c2.067-0.446,3.486-2.448,3.729-4.908C205.017,264.882,203.144,264.331,201.188,263.875"/>
				<polyline style="fill:#F4C29D;" points="204.188,267.125 206.438,261.423 199.875,257.438 197.813,264.239 				"/>
				<path style="fill:#D18574;" d="M204.884,265.36l1.554-3.938l-6.562-3.985l-1.556,5.129
					C200,264.246,202.699,265.245,204.884,265.36z"/>
				<path style="fill:#F4C29D;" d="M211.874,226.756l6.793,1.867c5.257,1.444,8.348,6.878,6.904,12.133l-4.374,15.917
					c-1.634,5.946-7.778,9.441-13.723,7.809l-1.385-0.381c-7.555-2.076-11.998-9.884-9.922-17.44l3.573-13.002
					C201.185,228.402,206.617,225.313,211.874,226.756"/>
				<path style="fill:#D18574;" d="M212.844,239.555c4.044,1.18,8.12,2.176,12.252,2.929l0.475-1.728
					c1.444-5.256-1.647-10.689-6.904-12.133l-6.793-1.867c-5.257-1.444-10.689,1.646-12.134,6.903l-0.318,1.157
					C203.913,236.315,208.287,238.225,212.844,239.555z"/>
				<path style="fill:#543229;" d="M207.75,225.334c0,0-4.917,18.833-12.083,17.5c0,0-4.25-5.167,0.166-16.333
					C200.25,215.334,207.75,225.334,207.75,225.334"/>
				<path style="fill:#F4C29D;" d="M197.541,243.167c0,0,0.417-5.917-3.792-5.625c-4.208,0.292-4.041,12,2.292,10.083"/>
				<g>
					<path style="fill:#3F231D;" d="M208.139,239.368c0.734,0.028,1.573,0.289,2.135,0.655c0.561,0.366,0.812,0.624,0.989,0.721
						c0.174,0.104,0.263,0.064,0.362,0.006c0.097-0.056,0.177-0.139,0.098-0.364c-0.083-0.217-0.319-0.61-1.013-1.063
						c-0.696-0.458-1.78-0.67-2.593-0.538c-0.817,0.113-1.355,0.413-1.325,0.506C206.826,239.414,207.41,239.325,208.139,239.368"/>
					<path style="fill:#3F231D;" d="M222.047,243.102c-0.503-0.511-1.383-0.796-2.04-0.817c-1.324-0.008-1.351,0.318-1.298,0.507
						c0.054,0.249,0.141,0.31,1.254,0.316c0.555,0.023,1.245,0.159,1.728,0.456c0.488,0.283,0.782,0.664,0.893,0.603
						C222.673,244.128,222.559,243.602,222.047,243.102"/>
					<path style="fill:#3F231D;" d="M213.869,250.691c-0.234-0.49-0.437-0.769-0.535-0.733c-0.099,0.036-0.074,0.376,0.028,0.9
						c0.089,0.513,0.307,1.26,0.401,1.961c0.002,0.094,0.005,0.097,0.005,0.088c0.011-0.012-0.038,0.046-0.098,0.093
						c-0.119,0.098-0.266,0.195-0.407,0.283c-0.279,0.168-0.54,0.326-0.783,0.473c-0.453,0.276-0.726,0.48-0.688,0.577
						c0.037,0.097,0.383,0.068,0.906-0.089c0.261-0.08,0.567-0.19,0.901-0.352c0.168-0.082,0.341-0.173,0.527-0.31
						c0.086-0.072,0.202-0.137,0.302-0.325c0.061-0.08,0.074-0.182,0.089-0.28c0.008-0.092,0-0.145-0.001-0.217
						C214.391,251.846,214.092,251.196,213.869,250.691"/>
					<path style="fill:#3F231D;" d="M212.849,257.8c-0.285,0.007-0.801,0.18-1.779,0.136c-0.486-0.031-1.035-0.146-1.551-0.382
						c-0.531-0.242-1.031-0.557-1.445-0.887c-0.835-0.662-1.268-1.378-1.365-1.334c-0.114,0.038,0.154,0.912,0.968,1.763
						c0.402,0.421,0.928,0.828,1.503,1.138c0.588,0.321,1.255,0.49,1.839,0.525c1.178,0.051,1.757-0.253,2.029-0.41
						c0.272-0.183,0.254-0.301,0.202-0.399C213.197,257.847,213.134,257.772,212.849,257.8"/>
					<path style="fill:#3F231D;" d="M195.075,239.797c-0.195-0.204-0.543-0.276-0.742-0.247c-0.467,0.024-0.824,0.291-1.009,0.546
						c-0.388,0.538-0.245,0.971-0.199,0.946c0.061,0.003,0.06-0.369,0.44-0.734c0.183-0.174,0.457-0.319,0.776-0.296
						c0.186,0.012,0.262,0.047,0.363,0.157c0.102,0.107,0.178,0.294,0.241,0.482c0.23,0.794,0.229,1.821,0.061,2.76
						c-0.094,0.491-0.214,0.919-0.444,0.978c-0.216,0.114-0.617-0.017-0.85-0.238c-0.524-0.482-0.303-0.894-0.025-1.227
						c0.248-0.269,0.473-0.253,0.671-0.238c0.389,0.076,0.484,0.081,0.559-0.019c0.06-0.071,0.142-0.242-0.378-0.536
						c-0.137-0.061-0.327-0.125-0.582-0.111c-0.253,0.011-0.56,0.133-0.801,0.36c-0.225,0.227-0.461,0.491-0.558,0.992
						c-0.083,0.49,0.147,1.042,0.567,1.397c0.206,0.188,0.46,0.331,0.754,0.415c0.285,0.089,0.651,0.098,0.984-0.062
						c0.331-0.154,0.581-0.474,0.667-0.774c0.113-0.306,0.137-0.54,0.186-0.816c0.139-1.062,0.09-2.14-0.263-3.081
						C195.39,240.218,195.283,239.987,195.075,239.797"/>
					<path style="fill:#3F231D;" d="M206.678,244.519c0.325-0.838,0.972-1.37,1.444-1.187c0.472,0.184,0.59,1.012,0.264,1.851
						c-0.325,0.838-0.972,1.369-1.443,1.186C206.47,246.186,206.352,245.357,206.678,244.519"/>
					<path style="fill:#3F231D;" d="M217.803,248.186c0.325-0.838,0.972-1.37,1.444-1.186c0.472,0.183,0.59,1.011,0.264,1.85
						c-0.325,0.838-0.972,1.369-1.443,1.186C217.595,249.853,217.477,249.023,217.803,248.186"/>
				</g>
				<path style="fill:#E67E22;" d="M194.375,229.938l-0.062-1.062c0,0,2.062-14.251,19.312-11.501s13.625,20.876,13.625,20.876
					L194.375,229.938z"/>
				<path style="fill:#FFDD50;" d="M211.875,234.813c0,0,2.938-7.5,2.375-12.938c-0.563-5.437-5.938-4.812-5.938-4.812
					s1-2,4.375-1.25s6.875,1.438,8.313,3.437c1.438,2,2.938,6.375-0.937,17.938L211.875,234.813z"/>
				<path style="fill:#FFDD50;" d="M207.375,232.313c-3.057-0.218-12.5-3.438-13.063-3.438c-0.562,0-1.125,2.876-0.312,3.251
					c0.812,0.374,28.875,7.374,32.687,8.062c3.813,0.688,4.063-1,0.188-3.563c-3.875-2.562-5.812-4.374-9.125-4.499
					S208.25,232.375,207.375,232.313"/>
				<path style="fill:#5F7ADD;" d="M207,313.25c0.351-3.863,2.127-13.865,3.917-23.41c-0.802-0.814-1.888-2.361-1.479-4.526
					c0.625-3.314,3.687-15.376,1.25-18.314c-0.013-0.016-0.025-0.027-0.038-0.043c-0.293-0.164-0.593-0.321-0.916-0.443
					c-0.7-0.266-1.46-0.539-2.256-0.813c0.379,0.642,1.082,2.315,0.897,5.736c-0.25,4.625-1.5,12.563-2.25,12.751
					c-0.75,0.186-12.063-2.064-12.188-2.75c-0.116-0.639,3.904-14.02-1.603-18.446c-0.297-0.018-0.593-0.035-0.885-0.053
					c-1.083-0.063-2.129,0.111-3.092,0.47c1.497,1.406,4.601,5.493,2.268,13.903c-2.229,8.034-8.01,9.511-10.834,9.74
					c-2.587,12.551-5.228,25.629-5.416,27.572c-0.375,3.875,3.5,42.25,3,48S167.5,401.75,167.5,401.75l8.875,2.75
					c0,0,14.375-37.5,15.625-43.5s0.625-30.5,0.625-30.5l2.75-0.125c0,0,4,23.75,5.375,30.625s-2.375,41-2.375,41l8.25,0.5
					c0,0,6-32.5,6.25-41.75S206.25,321.5,207,313.25"/>
				<path style="fill:#485CC1;" d="M207,313.25c0.351-3.863,2.127-13.865,3.917-23.41c-0.802-0.814-1.888-2.361-1.479-4.526
					c0.625-3.314,3.687-15.376,1.25-18.314c-0.013-0.016-0.025-0.027-0.038-0.043c-0.293-0.164-0.593-0.321-0.916-0.443
					c-0.7-0.266-1.46-0.539-2.256-0.813c0.379,0.642,1.082,2.315,0.897,5.736c-0.25,4.625-1.5,12.563-2.25,12.751
					c-0.75,0.186-12.063-2.064-12.188-2.75c-0.116-0.639,3.904-14.02-1.603-18.446c-0.297-0.018-0.593-0.035-0.885-0.053
					c-0.969-0.056-1.905,0.086-2.782,0.371c-0.008,0.128-0.018,0.255-0.024,0.383c1.565,1.63,4.175,5.714,1.982,13.619
					c-0.309,1.114-0.691,2.091-1.12,2.967c0.259,2.523,0.537,5.042,0.792,7.551c0.307,3.021,0.968,6.041,1.03,9.083
					c0.037,1.813,0.02,3.876-1.237,5.331c-1.424,1.647-3.414,2.311-5.152,3.531c-0.374,0.263-2.932,2.583-1.966,2.997
					c1.056,0.451,2.179,0.879,3.128,1.537c1.377,0.954,2.895,2.459,2.633,4.323c-0.337,2.408-2.016,4.008-3.062,6.107
					c-1.81,3.631-1.088,8.69-0.814,12.626c0.268,3.853,0.691,7.691,1.022,11.539c0.626,7.273,0.714,14.52-0.61,21.726
					c-1.532,8.334-4.377,16.637-8.594,24.099c0.114,0.137,0.147,0.328,0.009,0.523c-0.538,0.761-1.095,1.509-1.662,2.248
					c-1.629,2.583-3.431,5.049-5.416,7.353c-0.287,0.333-0.697,0.107-0.803-0.223c-0.384,0.391-0.773,0.777-1.165,1.161l8.739,2.708
					c0,0,14.375-37.5,15.625-43.5s0.625-30.5,0.625-30.5l2.75-0.125c0,0,4,23.75,5.375,30.625s-2.375,41-2.375,41l8.25,0.5
					c0,0,6-32.5,6.25-41.75S206.25,321.5,207,313.25z"/>
			</g>
			<g>
				<g>
					<path style="fill:#543229;" d="M342,398.343h-26.03c-0.153,0-0.29,0.063-0.399,0.154c-0.108-0.092-0.245-0.154-0.398-0.154
						h-26.03c-0.153,0-0.29,0.063-0.399,0.154c-0.108-0.092-0.245-0.154-0.398-0.154h-26.031c-0.153,0-0.289,0.063-0.398,0.154
						c-0.109-0.092-0.245-0.154-0.4-0.154h-26.03c-0.154,0-0.29,0.063-0.399,0.154c-0.109-0.092-0.246-0.154-0.399-0.154h-26.03
						c-0.154,0-0.29,0.063-0.399,0.154c-0.11-0.092-0.246-0.154-0.4-0.154h-26.03c-0.154,0-0.29,0.063-0.399,0.154
						c-0.109-0.092-0.245-0.154-0.399-0.154H155c-0.345,0-0.625,0.28-0.625,0.625v10.365c0,0.345,0.28,0.625,0.625,0.625h26.03
						c0.154,0,0.29-0.061,0.399-0.154c0.109,0.093,0.245,0.154,0.399,0.154h26.03c0.154,0,0.29-0.061,0.4-0.154
						c0.109,0.093,0.245,0.154,0.399,0.154h26.03c0.153,0,0.29-0.061,0.399-0.154c0.109,0.093,0.245,0.154,0.399,0.154h26.03
						c0.154,0,0.29-0.063,0.4-0.154c0.109,0.092,0.245,0.154,0.398,0.154h26.031c0.153,0,0.29-0.061,0.398-0.154
						c0.109,0.093,0.246,0.154,0.399,0.154h26.03c0.153,0,0.29-0.061,0.398-0.154c0.109,0.093,0.246,0.154,0.399,0.154H342
						c0.345,0,0.625-0.28,0.625-0.625v-10.365C342.625,398.623,342.345,398.343,342,398.343"/>
					<path style="fill:#543229;" d="M328.172,387.389h-26.03c-0.153,0-0.29,0.063-0.399,0.154c-0.108-0.092-0.245-0.154-0.398-0.154
						h-26.03c-0.154,0-0.29,0.063-0.399,0.154c-0.109-0.092-0.245-0.154-0.4-0.154h-26.03c-0.154,0-0.29,0.063-0.399,0.154
						c-0.109-0.092-0.246-0.154-0.399-0.154h-26.03c-0.154,0-0.29,0.063-0.399,0.154c-0.109-0.092-0.246-0.154-0.399-0.154h-26.031
						c-0.154,0-0.29,0.063-0.399,0.154c-0.109-0.092-0.245-0.154-0.399-0.154H168c-0.345,0-0.625,0.28-0.625,0.625v10.365
						c0,0.345,0.28,0.625,0.625,0.625h26.03c0.154,0,0.29-0.061,0.399-0.154c0.109,0.093,0.245,0.154,0.399,0.154h26.031
						c0.153,0,0.29-0.061,0.399-0.154c0.109,0.093,0.245,0.154,0.399,0.154h26.03c0.153,0,0.29-0.061,0.399-0.154
						c0.109,0.093,0.245,0.154,0.399,0.154h26.03c0.154,0,0.29-0.063,0.4-0.154c0.109,0.092,0.245,0.154,0.399,0.154h26.03
						c0.153,0,0.29-0.061,0.398-0.154c0.109,0.093,0.246,0.154,0.399,0.154h26.03c0.345,0,0.625-0.28,0.625-0.625v-10.365
						C328.797,387.669,328.517,387.389,328.172,387.389"/>
					<path style="fill:#543229;" d="M315.172,376.435h-26.03c-0.153,0-0.29,0.063-0.399,0.154c-0.108-0.092-0.245-0.154-0.398-0.154
						h-26.03c-0.154,0-0.29,0.063-0.399,0.154c-0.109-0.092-0.245-0.154-0.4-0.154h-26.03c-0.154,0-0.29,0.063-0.399,0.154
						c-0.109-0.092-0.246-0.154-0.399-0.154h-26.03c-0.154,0-0.29,0.063-0.399,0.154c-0.109-0.092-0.246-0.154-0.399-0.154h-26.031
						c-0.345,0-0.625,0.28-0.625,0.625v10.365c0,0.345,0.28,0.625,0.625,0.625h26.031c0.153,0,0.29-0.061,0.399-0.154
						c0.109,0.093,0.245,0.154,0.399,0.154h26.03c0.153,0,0.29-0.061,0.399-0.154c0.109,0.093,0.245,0.154,0.399,0.154h26.03
						c0.154,0,0.29-0.063,0.4-0.154c0.109,0.092,0.245,0.154,0.399,0.154h26.03c0.153,0,0.29-0.061,0.398-0.154
						c0.109,0.093,0.246,0.154,0.399,0.154h26.03c0.345,0,0.625-0.28,0.625-0.625V377.06
						C315.797,376.715,315.517,376.435,315.172,376.435"/>
					<path style="fill:#543229;" d="M328.172,365.479h-26.03c-0.153,0-0.29,0.063-0.399,0.154c-0.108-0.092-0.245-0.154-0.398-0.154
						h-26.03c-0.154,0-0.29,0.063-0.399,0.154c-0.109-0.092-0.245-0.154-0.4-0.154h-26.03c-0.154,0-0.29,0.063-0.399,0.154
						c-0.109-0.092-0.246-0.154-0.399-0.154h-26.03c-0.154,0-0.29,0.063-0.399,0.154c-0.109-0.092-0.246-0.154-0.399-0.154h-26.031
						c-0.154,0-0.29,0.063-0.399,0.154c-0.109-0.092-0.245-0.154-0.399-0.154H168c-0.345,0-0.625,0.28-0.625,0.625v10.366
						c0,0.345,0.28,0.625,0.625,0.625h26.03c0.154,0,0.29-0.061,0.399-0.154c0.109,0.093,0.245,0.154,0.399,0.154h26.031
						c0.153,0,0.29-0.061,0.399-0.154c0.109,0.093,0.245,0.154,0.399,0.154h26.03c0.153,0,0.29-0.061,0.399-0.154
						c0.109,0.093,0.245,0.154,0.399,0.154h26.03c0.154,0,0.29-0.063,0.4-0.154c0.109,0.092,0.245,0.154,0.399,0.154h26.03
						c0.153,0,0.29-0.061,0.398-0.154c0.109,0.093,0.246,0.154,0.399,0.154h26.03c0.345,0,0.625-0.28,0.625-0.625v-10.366
						C328.797,365.76,328.517,365.479,328.172,365.479"/>
					<path style="fill:#543229;" d="M315.172,354.525h-26.03c-0.153,0-0.29,0.063-0.399,0.154c-0.108-0.092-0.245-0.154-0.398-0.154
						h-26.03c-0.154,0-0.29,0.063-0.399,0.154c-0.109-0.092-0.245-0.154-0.4-0.154h-26.03c-0.154,0-0.29,0.063-0.399,0.154
						c-0.109-0.092-0.246-0.154-0.399-0.154h-26.03c-0.154,0-0.29,0.063-0.399,0.154c-0.109-0.092-0.246-0.154-0.399-0.154h-26.031
						c-0.345,0-0.625,0.28-0.625,0.625v10.365c0,0.345,0.28,0.625,0.625,0.625h26.031c0.153,0,0.29-0.061,0.399-0.154
						c0.109,0.093,0.245,0.154,0.399,0.154h26.03c0.153,0,0.29-0.061,0.399-0.154c0.109,0.093,0.245,0.154,0.399,0.154h26.03
						c0.154,0,0.29-0.063,0.4-0.154c0.109,0.092,0.245,0.154,0.399,0.154h26.03c0.153,0,0.29-0.061,0.398-0.154
						c0.109,0.093,0.246,0.154,0.399,0.154h26.03c0.345,0,0.625-0.28,0.625-0.625V355.15
						C315.797,354.806,315.517,354.525,315.172,354.525"/>
					<path style="fill:#543229;" d="M328.172,343.571h-26.03c-0.153,0-0.29,0.063-0.399,0.154c-0.108-0.092-0.245-0.154-0.398-0.154
						h-26.03c-0.154,0-0.29,0.063-0.399,0.154c-0.109-0.092-0.245-0.154-0.4-0.154h-26.03c-0.154,0-0.29,0.063-0.399,0.154
						c-0.109-0.092-0.246-0.154-0.399-0.154h-26.03c-0.154,0-0.29,0.063-0.399,0.154c-0.109-0.092-0.246-0.154-0.399-0.154h-26.031
						c-0.154,0-0.29,0.063-0.399,0.154c-0.109-0.092-0.245-0.154-0.399-0.154H168c-0.345,0-0.625,0.28-0.625,0.625v10.365
						c0,0.345,0.28,0.625,0.625,0.625h26.03c0.154,0,0.29-0.061,0.399-0.154c0.109,0.093,0.245,0.154,0.399,0.154h26.031
						c0.153,0,0.29-0.061,0.399-0.154c0.109,0.093,0.245,0.154,0.399,0.154h26.03c0.153,0,0.29-0.061,0.399-0.154
						c0.109,0.093,0.245,0.154,0.399,0.154h26.03c0.154,0,0.29-0.063,0.4-0.154c0.109,0.092,0.245,0.154,0.399,0.154h26.03
						c0.153,0,0.29-0.061,0.398-0.154c0.109,0.093,0.246,0.154,0.399,0.154h26.03c0.345,0,0.625-0.28,0.625-0.625v-10.365
						C328.797,343.852,328.517,343.571,328.172,343.571"/>
					<path style="fill:#543229;" d="M315.172,332.617h-26.03c-0.153,0-0.29,0.063-0.399,0.154c-0.108-0.092-0.245-0.154-0.398-0.154
						h-26.03c-0.154,0-0.29,0.063-0.399,0.154c-0.109-0.092-0.245-0.154-0.4-0.154h-26.03c-0.154,0-0.29,0.063-0.399,0.154
						c-0.109-0.092-0.246-0.154-0.399-0.154h-26.03c-0.154,0-0.29,0.063-0.399,0.154c-0.109-0.092-0.246-0.154-0.399-0.154h-26.031
						c-0.345,0-0.625,0.28-0.625,0.625v10.365c0,0.345,0.28,0.625,0.625,0.625h26.031c0.153,0,0.29-0.061,0.399-0.154
						c0.109,0.093,0.245,0.154,0.399,0.154h26.03c0.153,0,0.29-0.061,0.399-0.154c0.109,0.093,0.245,0.154,0.399,0.154h26.03
						c0.154,0,0.29-0.063,0.4-0.154c0.109,0.092,0.245,0.154,0.399,0.154h26.03c0.153,0,0.29-0.061,0.398-0.154
						c0.109,0.093,0.246,0.154,0.399,0.154h26.03c0.345,0,0.625-0.28,0.625-0.625v-10.365
						C315.797,332.897,315.517,332.617,315.172,332.617"/>
					<path style="fill:#543229;" d="M301.344,321.663h-26.03c-0.155,0-0.29,0.063-0.399,0.154c-0.109-0.092-0.245-0.154-0.4-0.154
						h-26.03c-0.154,0-0.29,0.063-0.4,0.154c-0.109-0.092-0.245-0.154-0.399-0.154h-26.03c-0.154,0-0.29,0.063-0.399,0.154
						c-0.109-0.092-0.246-0.154-0.399-0.154h-26.031c-0.345,0-0.625,0.28-0.625,0.625v10.365c0,0.345,0.28,0.625,0.625,0.625h26.031
						c0.153,0,0.289-0.061,0.399-0.154c0.109,0.093,0.245,0.154,0.399,0.154h26.03c0.154,0,0.29-0.061,0.399-0.154
						c0.109,0.093,0.245,0.154,0.4,0.154h26.03c0.154,0,0.29-0.063,0.4-0.154c0.109,0.092,0.244,0.154,0.399,0.154h26.03
						c0.345,0,0.625-0.28,0.625-0.625v-10.365C301.969,321.943,301.689,321.663,301.344,321.663"/>
				</g>
				<g>
					<rect x="155" y="398.968" style="fill:#ED8037;" width="26.03" height="10.365"/>
					<rect x="181.828" y="398.968" style="fill:#DB662C;" width="26.03" height="10.365"/>
					<rect x="208.657" y="398.968" style="fill:#F28B44;" width="26.03" height="10.365"/>
					<rect x="235.485" y="398.968" style="fill:#ED8037;" width="26.03" height="10.365"/>
					<rect x="262.314" y="398.968" style="fill:#ED8037;" width="26.029" height="10.365"/>
					<rect x="289.142" y="398.968" style="fill:#F9A74E;" width="26.03" height="10.365"/>
					<rect x="315.97" y="398.968" style="fill:#ED8037;" width="26.03" height="10.365"/>
					<rect x="168" y="388.014" style="fill:#F9A74E;" width="26.03" height="10.365"/>
					<rect x="194.828" y="388.014" style="fill:#ED8037;" width="26.03" height="10.365"/>
					<rect x="221.657" y="388.014" style="fill:#ED8037;" width="26.03" height="10.365"/>
					<rect x="248.485" y="388.014" style="fill:#ED8037;" width="26.03" height="10.365"/>
					<rect x="275.314" y="388.014" style="fill:#F28B44;" width="26.029" height="10.365"/>
					<rect x="302.142" y="388.014" style="fill:#F9A74E;" width="26.03" height="10.365"/>
					<rect x="181.828" y="377.06" style="fill:#ED8037;" width="26.03" height="10.365"/>
					<rect x="208.657" y="377.06" style="fill:#F28B44;" width="26.03" height="10.365"/>
					<rect x="235.485" y="377.06" style="fill:#ED8037;" width="26.03" height="10.365"/>
					<rect x="262.314" y="377.06" style="fill:#DB662C;" width="26.029" height="10.365"/>
					<rect x="289.142" y="377.06" style="fill:#ED8037;" width="26.03" height="10.365"/>
					<rect x="168" y="366.105" style="fill:#ED8037;" width="26.03" height="10.365"/>
					<rect x="194.828" y="366.105" style="fill:#DB662C;" width="26.03" height="10.365"/>
					<rect x="221.657" y="366.105" style="fill:#ED8037;" width="26.03" height="10.365"/>
					<rect x="248.485" y="366.105" style="fill:#ED8037;" width="26.03" height="10.365"/>
					<rect x="275.314" y="366.105" style="fill:#F9A74E;" width="26.029" height="10.365"/>
					<rect x="302.142" y="366.105" style="fill:#ED8037;" width="26.03" height="10.365"/>
					<rect x="181.828" y="355.151" style="fill:#ED8037;" width="26.03" height="10.364"/>
					<rect x="208.657" y="355.151" style="fill:#F9A74E;" width="26.03" height="10.364"/>
					<rect x="235.485" y="355.151" style="fill:#ED8037;" width="26.03" height="10.364"/>
					<rect x="262.314" y="355.151" style="fill:#F28B44;" width="26.029" height="10.364"/>
					<rect x="289.142" y="355.151" style="fill:#ED8037;" width="26.03" height="10.364"/>
					<rect x="168" y="344.197" style="fill:#DB662C;" width="26.03" height="10.364"/>
					<rect x="194.828" y="344.197" style="fill:#ED8037;" width="26.03" height="10.364"/>
					<rect x="221.657" y="344.197" style="fill:#ED8037;" width="26.03" height="10.364"/>
					<rect x="248.485" y="344.197" style="fill:#ED8037;" width="26.03" height="10.364"/>
					<rect x="275.314" y="344.197" style="fill:#ED8037;" width="26.029" height="10.364"/>
					<rect x="302.142" y="344.197" style="fill:#ED8037;" width="26.03" height="10.364"/>
					<rect x="181.828" y="333.242" style="fill:#ED8037;" width="26.03" height="10.365"/>
					<rect x="208.657" y="333.242" style="fill:#ED8037;" width="26.03" height="10.365"/>
					<rect x="235.485" y="333.242" style="fill:#F9A74E;" width="26.03" height="10.365"/>
					<rect x="262.314" y="333.242" style="fill:#DB662C;" width="26.029" height="10.365"/>
					<rect x="289.142" y="333.242" style="fill:#ED8037;" width="26.03" height="10.365"/>
					<rect x="194.828" y="322.288" style="fill:#F9A74E;" width="26.03" height="10.365"/>
					<rect x="221.657" y="322.288" style="fill:#ED8037;" width="26.03" height="10.365"/>
					<rect x="248.485" y="322.288" style="fill:#ED8037;" width="26.03" height="10.365"/>
					<rect x="275.314" y="322.288" style="fill:#F28B44;" width="26.029" height="10.365"/>
				</g>
			</g>
			<g>
				<g>
					<path style="fill:#F4C29D;" d="M191,292.938l2.5,1c0,0,0.625,2.5,1.5,4s17.875,15.375,17.875,15.375l-3.938,7.375
						c0,0-20.187-15.875-21.5-17.686c-1.312-1.814-2.624-7.5-2.624-7.5L191,292.938z"/>
					<path style="fill:#F4C29D;" d="M211.313,313.5c0,0,6.25-3.125,8.688-2.688c2.437,0.438,4.062,1.438,5.687,2.438
						s1.313,3.939-2.437,2.564c-3.75-1.376-6.501,2.999-5.376,3.624s4.907,2.313,4.282,3.563s-1.906,1.25-3.719,0.375
						c-1.813-0.875-2.563-1.686-3.5-1.5c-0.937,0.189-4.437,0.814-6-1.188C207.374,318.688,211.313,313.5,211.313,313.5"/>
					<path style="fill:#F4C29D;" d="M219.25,313.563c0,0,6.75,2.939,7.812,4.031c1.063,1.094-0.093,3.156-3.218,1.813
						c-3.125-1.344-5.031-2.155-5.031-2.155"/>
					<path style="fill:#F4C29D;" d="M218.719,316.281c0,0,5.469,2.531,6.719,3.5c1.25,0.969,0.218,3.063-2.219,2.188
						c-2.437-0.875-6.281-2.906-6.281-2.906"/>
				</g>
				<path style="fill:#D3562F;" d="M188.357,263.409L188.357,263.409c0,0-8.794,0.528-7.794,12.216s4.312,21.438,4.312,21.438
					s5.063-2.75,9.188-2.75c0,0-4.688-21-4.688-21.625s1.938,0.188,1.938,0.188s0.353-1.595,0.125-4.438
					C191.323,267.011,189.782,263.541,188.357,263.409"/>
			</g>
			<g>
				<polygon style="fill:#D18574;" points="291.75,293.75 319.75,302.75 316.583,309.833 287.917,300.167 				"/>
				<path style="fill:#D18574;" d="M291.208,295.083l0.75,3.292c0,0-1,3.292-3.875,3.875s-5.375-3.625-6.208-3.792
					c-0.833-0.166-4.958-0.125-6.5-1.416c-1.542-1.292-1.083-2.917,0.75-2.459c1.833,0.459,5.042,1.209,5.708-0.583
					c0.985-2.646,1.375-3.25,1.334-3.708c-0.042-0.459-7.042-2.417-7.75-3.875c-0.709-1.459-0.042-3.042,5.208-0.625
					c5.25,2.416,8.5,3.958,9.292,4.75C290.708,291.333,291.208,295.083,291.208,295.083"/>
				<path style="fill:#D18574;" d="M283.625,290.167c0,0-8.273-3.729-9.233-2.059c-0.961,1.672,0.163,2.596,3.87,3.879
					c3.706,1.284,4.576,1.56,4.576,1.56"/>
				<path style="fill:#D18574;" d="M280.917,295.625c0,0-5.959-1.208-7.209-2.167c-1.25-0.958-0.666-3.333,2.5-2.25
					c3.167,1.084,6.167,2.084,6.167,2.084"/>
				<path style="fill:#D18574;" d="M291.958,298.375c1.792-4.417,0.792-6.708-0.375-8.958c-1.166-2.25-5.041-6.334-6.625-5.417
					c-1.583,0.917,0.417,3.792,1.834,4.708c1.416,0.917,1.083,1.5,0.75,2.834C287.208,292.875,286.667,298.208,291.958,298.375"/>
				<path style="fill:#F4C29D;" d="M296,304.167c0,0-1.563,3.897-3.75,5.708c-2.188,1.814-26,13.875-26,13.875l-4.564-6.561
					c0,0,23.814-11.75,24.689-12.875s2.688-4,2.688-4L296,304.167z"/>
				<path style="fill:#616068;" d="M301.5,400.5c0,0,0.708,0.917,0.833,4.75s0.584,4.75-0.458,5.208c-1.042,0.459-21.75,0-22.875,0
					s-2.083-3.125,0.583-5.458c2.667-2.333,11.25-3,11.667-4.5S301.458,399.542,301.5,400.5"/>
				<path style="fill:#444449;" d="M286.073,402.486c-2.482,0.635-5.189,1.375-6.49,2.514c-2.666,2.333-1.708,5.458-0.583,5.458
					c0.414,0,3.487,0.063,7.253,0.118C285.393,407.147,285.684,404.275,286.073,402.486"/>
				<path style="fill:#444449;" d="M279,410.458c1.125,0,21.833,0.459,22.875,0c0.802-0.353,0.715-0.982,0.575-3h-24.448
					C277.583,409.072,278.251,410.458,279,410.458"/>
				<polygon style="fill:#D18574;" points="316.833,263 318.75,269.75 312.083,271.5 310.083,265.667 				"/>
				<g>
					<path style="fill:#F4C29D;" d="M319.43,253.076l-2.803-11.783c-1.114-4.687-5.63-7.536-10.084-6.363l-7.878,2.075
						c-4.455,1.174-7.162,5.925-6.048,10.612l1.306,5.484l0.443,1.864c-0.658,2.068-1.467,4.732-1.366,5.034
						c0.076,0.225,1.43,0.819,2.898,1.406l0.391,1.646c1.115,4.688,5.631,7.536,10.085,6.362l4.407-1.16
						C317.152,266.575,321.024,259.78,319.43,253.076"/>
					<path style="fill:#D18574;" d="M298.671,245.601c3.853-0.749,7.751-1.254,11.604-2.02c2.195-0.437,4.382-0.907,6.561-1.407
						l-0.209-0.88c-1.114-4.687-5.63-7.536-10.084-6.363l-7.878,2.075c-4.174,1.1-6.813,5.338-6.214,9.723
						C294.564,246.523,296.693,245.985,298.671,245.601z"/>
				</g>
				<g>
					<path style="fill:#543229;" d="M296.333,236.667c0,0,4.834,15.333,5.167,14.167c0.333-1.167,1.833-4.167,5.167-2.167
						C310,250.666,309,260,305,257.834c0,0,2.167,6.332,4,7c1.833,0.666,7.833,0.832,9.667-1c1.833-1.834,8-15.335,2.666-27.835
						C316,223.5,296.333,233.167,296.333,236.667"/>
					<path style="fill:#3F231D;" d="M310.275,243.58c4.213-0.838,8.393-1.806,12.549-2.873c-0.338-1.568-0.824-3.146-1.491-4.708
						c-5.333-12.5-25-2.833-25,0.667c0,0,1.515,4.805,2.907,8.831C302.908,244.807,306.611,244.309,310.275,243.58z"/>
				</g>
				<path style="fill:#E67E22;" d="M291.25,241.584l0.083-1.417c0,0-0.583-10.5,9.334-14.416
					c9.916-3.917,19.333,1.083,22.083,11.083c0,0-8.917,2.833-17.333,4.083C297,242.167,291.25,241.584,291.25,241.584"/>
				<path style="fill:#FFDD50;" d="M312.75,239.25c0,0,0.833-10.083-6.583-11.333c-7.417-1.25-11.334,2-11.334,2
					s1.917-5,10.334-5.584c8.416-0.583,12.166,5.334,13.25,8c1.083,2.667,1.5,6,1.5,6L312.75,239.25z"/>
				<path style="fill:#FFDD50;" d="M323.167,239.75c0.585-0.069,0.416-2.917-0.417-2.917s-21.333,4.084-24.833,4.167
					s-5.75-0.667-6.584-0.833c-0.833-0.167-9,3.083-8.083,4.916C284.167,246.917,321.75,239.917,323.167,239.75"/>
				<path style="fill:#A53245;" d="M304.676,271.942l16.954-4.041c4.493-1.071,9.005,1.703,10.076,6.196l10.639,44.628
					c0.566,2.377-0.9,4.763-3.277,5.329l-18.857,4.495c-3.775,0.9-7.563-1.431-8.463-5.204l-10.806-45.331
					C300.296,275.307,301.968,272.589,304.676,271.942"/>
				<path style="fill:#A53245;" d="M306.125,285.875L296,306.125l-8.375-4.375c0,0,8.25-16.125,10.625-21.625
					s3.977-7.114,6.426-8.183"/>
				<path style="fill:#89243A;" d="M342.345,318.726l-10.639-44.628c-0.521-2.189-1.864-3.965-3.619-5.092
					c0.115,0.231,0.22,0.466,0.313,0.694c0.045,0.11,0.038,0.204,0.013,0.288c1.714,4.456,0.192,10.16-3.702,12.987
					c-4.065,2.95-9.747,3.613-14.579,2.521c-2.283-0.516-5.105-1.467-7.207,0.07c-0.055,0.04-0.098,0.09-0.15,0.132l8.974,37.646
					c0.9,3.773,4.688,6.104,8.463,5.204l18.857-4.495C341.444,323.488,342.911,321.103,342.345,318.726z"/>
				<path style="fill:#89243A;" d="M302.924,285.567c-1.47,1.075-2.442,2.598-3.256,4.199c-1.255,2.468-2.336,5.044-3.733,7.436
					c-1.547,2.647-3.477,4.889-5.964,5.773l6.029,3.149l10.125-20.25l-0.118-1.141C304.911,284.697,303.848,284.892,302.924,285.567
					z"/>
				<path style="fill:#739BF4;" d="M305.399,296.716l5.952,24.968l30.506-5.004l-7.18-30.114c-2.07-1.673-4.721-4.122-6.178-6.69
					c-1.76-3.101-3.743-8.783-4.86-12.193c-0.663-0.006-1.336,0.059-2.011,0.22l-2.097,0.5c1.257,2.911,3.593,8.587,3.593,10.599
					c0,2.75-10.125,4.75-10.625,3.25c-0.366-1.099-2.345-7.146-5.339-10.9l-2.485,0.593c-0.774,0.185-1.449,0.553-2.024,1.026
					c2.438,2.201,5.528,6.375,5.974,13.656C309.058,293.694,307.118,296.015,305.399,296.716"/>
				<path style="fill:#5F7ADD;" d="M326.583,302.834c-4.214-0.48-7.394-2.917-9.978-6.155c-1.583-1.982-3.19-3.983-4.64-6.067
					c-1.051-1.514-1.834-4.511-3.527-5.85c0.079,0.6,0.146,1.215,0.186,1.863c0.433,7.069-1.507,9.39-3.226,10.091l5.952,24.968
					l30.506-5.004l-3.573-14.989C334.655,303.226,329.791,303.199,326.583,302.834z"/>
				<path style="fill:#543229;" d="M311.563,320.75c0,0,0.691,2.89,0.502,3.569C311.874,325,293.375,351.625,291.75,357
					s-0.875,43.375-0.5,43.5s10.374,1.125,10.874,0s0.5-34.25,0.625-36.25s17.876-28.25,18.501-28.5s7.374-0.25,7.374-0.25
					S322,354,321.5,356.125s-2.126,4.625,3.625,15.375c5.749,10.75,14.874,24.25,14.874,24.25l9.001-4.5c0,0-16.751-28.5-17.001-30
					s11.125-28.125,11.125-31.625s0.307-5.274-0.68-9.721C341.459,315.458,311.563,320.75,311.563,320.75"/>
				<path style="fill:#3F231D;" d="M342.345,318.726l-0.986-4.137c-18.028,0.945-26.874,3.313-30.586,4.669l0.975,4.088
					c0.081,0.338,0.192,0.66,0.317,0.974c11.473-3.604,25.156-4.288,30.38-4.415C342.458,319.516,342.439,319.122,342.345,318.726"
					/>
				<path style="fill:#543229;" d="M319.338,322.443c1.163-0.243,2.326-0.464,3.48-0.663l-1.707-5.084
					c-1.228,0.214-2.355,0.433-3.377,0.648L319.338,322.443z"/>
				<path style="fill:#543229;" d="M334.361,320.339c1.206-0.099,2.341-0.176,3.385-0.237l-1.18-5.215
					c-1.127,0.082-2.213,0.17-3.258,0.262L334.361,320.339z"/>
				<path style="fill:#616068;" d="M353.583,397.5c0,0-3.166-5.333-4.583-6.25s-8.583,2.625-9,4.5s-7.625,7.083-8.208,11.208
					c-0.584,4.125,3.333,5.042,4.166,4.292C336.792,410.5,353.583,397.5,353.583,397.5"/>
				<path style="fill:#444449;" d="M336.539,399.899c-2.099,2.191-4.426,4.788-4.747,7.059c-0.584,4.125,3.333,5.042,4.166,4.292
					c0.325-0.292,3.071-2.443,6.301-4.959C338.254,404.609,336.941,401.867,336.539,399.899"/>
				<path style="fill:#444449;" d="M342.459,402.363c5.296-3.879,10.239-6.136,11.041-5.04c0.803,1.095-2.955,4.923-8.25,8.802
					c-5.295,3.879-10.124,6.341-10.926,5.246C333.521,410.275,337.164,406.243,342.459,402.363"/>
				<path style="fill:#3F231D;" d="M300.375,396.375c-0.055-0.241-0.135-0.324-1.918-0.257c-1.784,0.07-4.625,0.032-4.645,0.257
					c-0.022,0.229,2.817,0.638,4.666,0.568C300.327,396.874,300.428,396.577,300.375,396.375"/>
				<path style="fill:#3F231D;" d="M338.455,391.168c-0.144-0.179,2.008-2.077,3.595-3.03c1.585-0.952,1.832-0.758,1.898-0.56
					c0.085,0.232,0.064,0.345-1.466,1.263C340.951,389.759,338.595,391.346,338.455,391.168"/>
				<path style="fill:#F4C29D;" d="M267.313,317.875c-2.299-4.206-3.939-5.125-6.688-5.436c-2.751-0.314-7.438-0.814-7.438,0.5
					c0,1.311,5.875,2.061,5.875,2.061s-6.5,2.625-9.187,3.938c-2.688,1.313-1.875,4.625,1.312,3c3.186-1.624,5.561-1.249,6.25,0
					c0.686,1.25,2.75,3.313,0.061,4.376c-2.686,1.061-2.686,2.468-1.375,3.125c1.075,0.536,5.814-1.064,8.564-2.625
					C267.438,325.25,269.875,322.563,267.313,317.875"/>
				<path style="fill:#F4C29D;" d="M257.438,319.875c0,0-5.438,1.625-8.125,2.75c-2.688,1.125-0.75,3.906,1.531,3.125
					c2.281-0.781,7.844-2.906,7.844-2.906"/>
				<path style="fill:#F4C29D;" d="M260.531,325.438c0,0-5.625,2.25-7.437,2.281c-2.441,0.042-2.719-2.031-0.751-2.75
					c1.97-0.718,5.938-2.25,5.938-2.25"/>
			</g>
		</g>
		<g>
			<g>
				<g>
					<path style="fill:#543229;" d="M418.391,437.792h-14.583c0,0-0.209,8.458-0.209,12.208s0.417,4.292,2.667,4.917
						s26.583,0,31.375,0s6.583-5.625,3.583-8.709c-3-3.083-9.041-4.041-12.916-4.541s-8.334-0.792-8.875-1.75
						C418.891,438.958,418.391,437.792,418.391,437.792"/>
					<path style="fill:#633B34;" d="M428.798,441.731c3.878,0.519,9.549,1.52,12.426,4.477c3,3.084,1.209,8.709-3.583,8.709
						c-1.665,0-5.689,0.075-10.326,0.148C425.799,447.792,427.314,443.786,428.798,441.731"/>
					<path style="fill:#633B34;" d="M406.266,454.917c-2.155-0.599-2.627-1.129-2.663-4.468c1.187,0.779,3.09,1.468,6.121,1.468
						c6.495,0,27.114,2.435,32.918-1.407c-0.291,2.324-2.087,4.407-5.001,4.407C432.849,454.917,408.516,455.542,406.266,454.917"/>
				</g>
				<g>
					<path style="fill:#543229;" d="M370.401,437.792h14.583c0,0,0.209,8.458,0.209,12.208s-0.417,4.292-2.667,4.917
						s-26.583,0-31.375,0s-6.583-5.625-3.583-8.709c3-3.083,9.041-4.041,12.916-4.541s8.334-0.792,8.875-1.75
						C369.901,438.958,370.401,437.792,370.401,437.792"/>
					<path style="fill:#633B34;" d="M359.994,441.731c-3.878,0.519-9.549,1.52-12.426,4.477c-3,3.084-1.209,8.709,3.583,8.709
						c1.665,0,5.689,0.075,10.326,0.148C362.994,447.792,361.477,443.786,359.994,441.731"/>
					<path style="fill:#633B34;" d="M382.526,454.917c2.155-0.599,2.627-1.129,2.663-4.468c-1.187,0.779-3.09,1.468-6.121,1.468
						c-6.495,0-27.113,2.435-32.918-1.407c0.291,2.324,2.087,4.407,5.001,4.407C355.943,454.917,380.276,455.542,382.526,454.917"/>
				</g>
				<g>
					<path style="fill:#485CC1;" d="M391.558,317.375h-23.5V440.5c0,0,1.75,0.875,6.5,1.25s10.875-0.25,10.875-1
						s0.75-108.375,0.75-108.375h16.375c0,0,1,106.75,1,107.75S417.808,442,420.683,440l0.25-122.125L391.558,317.375z"/>
					<path style="fill:#294291;" d="M395.808,326c-0.25,1-5.5,1-5.5-0.625v-8h1.25l4.31,0.073
						C395.921,320.67,395.969,325.353,395.808,326"/>
					<path style="fill:#294291;" d="M376.561,317.375c-2.926,6.195-6.425,6.972-8.504,6.757v-6.757H376.561z"/>
					<path style="fill:#294291;" d="M413.285,317.745l7.647,0.13l-0.021,9.789C416.69,325.956,414.371,320.947,413.285,317.745"/>
				</g>
			</g>
			<g>
				<g>
					<path style="fill:#294291;" d="M373.188,236.313c0,0-9.353,0.187-14.689,28.353c-5.333,28.168,7.376,21.96,10.75,12.022
						C372.625,266.75,379.563,238.98,373.188,236.313"/>
					<path style="fill:#294291;" d="M423.665,244.057c0.081-3.509,5.101-4.936-4.482-8.411c-5.518-2.001-16.344-2.894-23.875-2.894
						c-6.748,0-10.808-0.065-17.433,1.373c-3.3,0.716-6.211,1.82-6.402,5.187l-4.361,76.829c-0.165,2.91,2.152,5.359,5.068,5.359
						h45.92c2.062,0,3.746-1.645,3.793-3.703L423.665,244.057z"/>
					<path style="fill:#E67E22;" d="M419.183,235.646c-2.92-1.059-7.328-1.805-11.946-2.275
						c-2.529,13.944-13.736,18.254-13.736,18.254c-7.526-5.051-7.092-15.079-6.648-18.742c-2.791,0.156-5.538,0.496-8.977,1.242
						c-3.3,0.716-6.211,1.819-6.402,5.188l-4.361,76.829c-0.165,2.909,2.152,5.358,5.068,5.358h45.92
						c2.062,0,3.746-1.645,3.793-3.703l1.772-73.74C423.745,240.548,428.766,239.122,419.183,235.646"/>
					<path style="fill:#FFDD50;" d="M423.395,255.311c-12.216,1.123-37.266,0.85-52.828-0.032l-2.465,43.423
						c4.604,0.66,11.928,0.97,24.301,1.097c12.994,0.134,22.877-0.134,29.935-0.483L423.395,255.311z"/>
					<path style="fill:#E67E22;" d="M422.931,274.632c-0.269,0.068-0.546,0.142-0.806,0.207c-5.64,1.403-29.266,0.155-46.489-0.156
						c-2.346-0.043-4.372-0.176-6.15-0.367l-0.513,9.03c0.446,0.084,0.893,0.166,1.328,0.229c6.555,0.936,37.344,1.404,49.538,0.624
						c1.022-0.065,1.974-0.15,2.867-0.25L422.931,274.632z"/>
				</g>
				<g>
					<path style="fill:#294291;" d="M423.833,238c4.027,1.25,6.334,6.917,10.834,15.917c4.5,9,12.75,24,13.833,30
						s-1.917,14.166-10.417,11.083S424,287.917,424,287.917s6.833-2.75,3.5-14.584l1.833,1c0,0-8.583-13.416-9.25-15.666
						C419.417,256.417,419,236.5,423.833,238"/>
					<path style="fill:#3454A3;" d="M448.5,283.917c-0.298-1.648-1.148-3.988-2.3-6.684c0.556,3.653,0.169,6.366-2.95,4.517
						l-13.917-7.417l-1.833-1c3.333,11.834-3.5,14.584-3.5,14.584s5.583,4,14.083,7.083S449.583,289.917,448.5,283.917"/>
				</g>
			</g>
			<g>
				<g>
					<path style="fill:#F4C29D;" d="M395.293,232.752c-1.83,0-3.629,0.016-5.374,0.041c-0.195,0.726-0.299,1.459-0.299,2.165
						c0,3.794,2.976,5.37,7.188,5.37c4.211,0,7.625-3.075,7.625-6.868c0-0.116-0.013-0.229-0.02-0.342
						c-3.195-0.246-6.368-0.366-9.105-0.366H395.293z"/>
					<polyline style="fill:#F4C29D;" points="401.808,235.334 401.808,227.584 391.641,227.584 391.641,234.584 					"/>
					<path style="fill:#D18574;" d="M396.251,231.75c1.825-0.005,3.806,0.021,5.557-0.614v-3.553h-10.167v4.246
						C393.175,231.964,394.809,231.754,396.251,231.75z"/>
				</g>
				<g>
					<g>
						<path style="fill:#543229;" d="M387.667,166.334c0,0-12.084,8.083-17.417,9.5c0,0,1.667,3.167,5.667,5.167
							c0,0-3.084,2.333-5.584,2.333c0,0,2.417,6.083,13.167,8.833S392.417,160.501,387.667,166.334"/>
						<path style="fill:#F4C29D;" d="M390.153,228.554l-3.811-0.983c-8.398-2.167-13.45-10.732-11.284-19.131l10.186-39.487
							c0.438-1.696,2.167-2.716,3.863-2.278l35.809,9.237c1.696,0.437,2.716,2.167,2.279,3.863l-8.194,31.762
							C415.734,224.202,402.818,231.821,390.153,228.554"/>
						<path style="fill:#D18574;" d="M424.916,175.912l-35.809-9.237c-1.696-0.438-3.426,0.582-3.863,2.278l-3.053,11.833
							c3.924,3.379,10.381,4.423,15.065,5.088c9.078,1.289,18.743,1.765,27.777-0.022c0.243-0.048,0.43,0.067,0.534,0.232
							l1.628-6.308C427.632,178.079,426.612,176.349,424.916,175.912z"/>
						<path style="fill:#543229;" d="M382.75,176.5c0,0,6.917,5.333,36,4.167c0,0-1.833,4.333-0.417,8.083
							c1.417,3.75,1.917,4.5,0.75,8.25c-1.166,3.75-0.833,11,0.084,13.5c0.916,2.5,10.5-0.333,15.75-21.5s-35.75-30.083-43.584-26.5
							C383.5,166.083,382.833,170.25,382.75,176.5"/>
						<path style="fill:#F4C29D;" d="M418.333,202.167c0,0,1.75-3.833,7.25-4.833s8.25,9.666,1.25,14.583
							c-7,4.917-10-0.167-10-0.167"/>
						<g>
							<path style="fill:#3F231D;" d="M410.421,188.106c-0.385-0.255-0.937-0.378-1.404-0.348c-0.946,0.043-1.73,0.404-2.39,0.723
								c-1.295,0.688-1.844,1.223-2.108,1.531c-0.257,0.32-0.198,0.456-0.102,0.572c0.098,0.118,0.209,0.198,0.569,0.049
								c0.365-0.136,0.967-0.548,2.143-1.173c0.586-0.29,1.288-0.622,1.956-0.69c0.624-0.114,1.222,0.25,1.702,0.713
								c0.943,0.961,1.397,2.002,1.546,1.934c0.125-0.038-0.035-1.182-0.963-2.45C411.129,188.658,410.819,188.35,410.421,188.106"
								/>
							<path style="fill:#3F231D;" d="M387.503,186.692c0.404,0.116,0.888,0.556,1.254,0.902c0.749,0.745,1.132,1.189,1.397,1.363
								c0.261,0.183,0.387,0.129,0.513,0.043c0.124-0.086,0.221-0.194,0.108-0.51c-0.12-0.309-0.413-0.849-1.254-1.687
								c-0.45-0.394-0.933-0.895-1.796-1.1c-0.186-0.053-0.518-0.039-0.672,0.008c-0.191,0.038-0.362,0.101-0.526,0.165
								c-0.329,0.131-0.612,0.298-0.869,0.464c-1.016,0.677-1.586,1.383-1.491,1.493c0.098,0.122,0.846-0.362,1.862-0.809
								c0.253-0.108,0.522-0.216,0.793-0.285C387.102,186.667,387.361,186.63,387.503,186.692"/>
							<path style="fill:#3F231D;" d="M390.817,205.043c0.121,0.243,0.206,0.382,0.311,0.556c0.406,0.652,0.803,1.197,1.148,1.652
								c0.692,0.903,1.191,1.41,1.306,1.333c0.116-0.078-0.173-0.726-0.708-1.72c-0.273-0.503-0.59-1.084-0.939-1.725
								c-0.08-0.149-0.179-0.346-0.224-0.456c0.001-0.013-0.003,0.003,0.008-0.026c0.009-0.045,0.037-0.12,0.064-0.193
								c0.135-0.312,0.343-0.663,0.565-1.012c1.886-2.792,3.636-5.011,3.399-5.201c-0.191-0.161-2.27,1.732-4.248,4.659
								c-0.239,0.378-0.462,0.754-0.637,1.195c-0.04,0.119-0.081,0.233-0.106,0.385
								C390.728,204.659,390.751,204.872,390.817,205.043"/>
							<path style="fill:#3F231D;" d="M394.282,215.836c-1.26-0.024-2.513-0.192-3.552-0.458c-2.097-0.546-2.862-1.375-3.261-1.742
								c-0.383-0.404-0.478-0.428-0.637-0.386c-0.133,0.027-0.306,0.183-0.001,0.831c0.303,0.607,1.286,1.769,3.62,2.361
								c1.156,0.295,2.489,0.438,3.835,0.408c1.345-0.044,2.69-0.253,3.84-0.612c2.339-0.664,3.746-1.958,3.623-2.071
								c-0.086-0.11-1.558,0.879-3.817,1.318C396.819,215.732,395.542,215.849,394.282,215.836"/>
							<path style="fill:#3F231D;" d="M426.06,202.28c-0.347-0.46-1.125-0.646-1.799-0.476c-0.695,0.139-1.386,0.506-2.02,0.984
								c-0.636,0.483-1.234,1.085-1.747,1.792c-0.505,0.709-0.947,1.525-1.108,2.484c-0.155,0.946,0.18,2.155,1.127,2.704
								c0.454,0.314,1.11,0.37,1.585,0.195c0.484-0.16,0.882-0.429,1.175-0.742c0.609-0.612,0.925-1.32,1.021-2.022
								c0.055-0.35,0.008-0.716-0.112-1.043c-0.056-0.162-0.169-0.305-0.256-0.443c-0.094-0.121-0.189-0.201-0.278-0.297
								c-0.798-0.73-1.679-0.682-2.104-0.57c-0.061,0.02-0.109,0.039-0.163,0.058c0.4-0.573,0.871-1.092,1.348-1.51
								c1.046-0.943,2.424-1.425,3.022-0.818c0.306,0.271,0.429,0.641,0.514,0.874c0.081,0.242,0.113,0.384,0.153,0.384
								c0.036,0,0.078-0.149,0.064-0.425C426.457,203.142,426.415,202.712,426.06,202.28 M421.648,205.617
								c0.342,0.009,0.829,0.042,1.297,0.53c0.051,0.066,0.124,0.136,0.164,0.199c0.022,0.065,0.073,0.109,0.09,0.184
								c0.037,0.142,0.069,0.316,0.027,0.531c-0.066,0.418-0.3,0.961-0.734,1.385c-0.427,0.428-1.007,0.699-1.423,0.4
								c-0.509-0.283-0.754-0.948-0.68-1.647c0.081-0.54,0.277-1.073,0.546-1.579C421.06,205.641,421.263,205.635,421.648,205.617"
								/>
							<path style="fill:#3F231D;" d="M404.889,197.724c0.426-1.483,1.356-2.517,2.078-2.31c0.722,0.208,0.961,1.578,0.534,3.061
								c-0.427,1.483-1.357,2.517-2.078,2.31C404.702,200.577,404.462,199.207,404.889,197.724"/>
							<path style="fill:#3F231D;" d="M384.305,194.724c0.427-1.483,1.357-2.517,2.079-2.31c0.722,0.208,0.96,1.578,0.534,3.061
								c-0.427,1.483-1.358,2.517-2.079,2.31C384.117,197.577,383.879,196.207,384.305,194.724"/>
						</g>
					</g>
					<g>
						<path style="fill:#E67E22;" d="M382.063,169.585c0,0,33.407,2.563,53.656,18.711c0,0,6.835-18.455-8.373-30.502
							C412.137,145.747,389.838,148.652,382.063,169.585"/>
						<path style="fill:#FFDD50;" d="M394,170.25c0,0,1.917-17.833,11.417-19.833s18.166,2.916,20.916,6.75
							c0,0-8-5.417-12.083,0.083s-6,15.667-6,15.667L394,170.25z"/>
						<path style="fill:#FFDD50;" d="M434.583,190.417c0.524-0.058,1.667-2.417,1.334-3.167c-0.334-0.75-3.167-2.75-17-9.333
							c0,0-4.584-5.5-21.167-8.667c-16.583-3.166-28.833,0.417-27.833,1.834c1,1.416,16.25,0.25,34.5,4.833
							C422.667,180.5,433.833,190.5,434.583,190.417"/>
					</g>
				</g>
			</g>
			<g>
				<g>
					<path style="fill:#FFFFFF;" d="M336,252.667c0,0,31,13.666,79,0.666l3.667,54c0,0-33.334,19.667-76,1.334L336,252.667z"/>
					<path style="fill:#EAE9E5;" d="M416.424,274.297c-0.335,1.88-0.719,3.74-1.148,5.57c-1.471,6.257-3.072,13.699-6.825,19.054
						c-3.154,4.501-7.875,7.447-13.347,8.211c-6.591,0.92-12.92-0.142-19.469-0.731c-2.13-0.192-4.283-0.305-6.391-0.685
						c-1.231-0.222-2.738-0.407-3.449-1.576c-1.544-2.539,1.065-3.678,3.093-4.486c0.594-0.237,1.962-0.611,2.256-1.283
						c0.425-0.968-1.425-1.423-1.973-1.528c-2.122-0.405-4.326-0.339-6.475-0.259c-3.501,0.132-8.148,1.134-11.473-0.353
						c-4.127-1.845-6.737-5.78-8.321-9.882c-3.915-10.135-3.294-21.439-3.001-32.272c-2.547-0.816-3.901-1.409-3.901-1.409l6.667,56
						c42.666,18.333,76-1.334,76-1.334L416.424,274.297z"/>
				</g>
				<g>
					<path style="fill:#F4C29D;" d="M428.083,283.917c1.712-4.932,0.917-12-4.333-15.917c-2.083-1.5-9.75-2-14.75-1.583
						c-5,0.416-3.167,4.583-1.5,4.583s6.875-0.436,6.561,0.875c-0.311,1.314,1.75,8.439-0.875,8.189s-5.811-0.314-5.936,1.686
						s1.875,2.75,4.75,2.689c2.875-0.064,4.375-0.625,5.125,1.25S425.292,291.958,428.083,283.917"/>
					<path style="fill:#F4C29D;" d="M416,271c0,0-3.939-0.186-8.064,0.063c-4.125,0.25-3.436,4.375-0.061,4.375h7.75"/>
					<path style="fill:#F4C29D;" d="M415.125,279.938c0,0-3.564,0.25-6.5,0.25c-2.939,0-3.125-1.435-3.125-2.563
						c0-0.563-0.5-3.063,9.875-2.249"/>
				</g>
				<g>
					<path style="fill:#F4C29D;" d="M340.656,264.28c-1.9-0.409-5.912-0.409-7.813,0c-0.904,0.195-2.469,1.128-2.469,2.518
						c0,1.392,1.564,2.324,2.469,2.52c1.9,0.409,5.912,0.409,7.813,0c0.904-0.195,2.469-1.128,2.469-2.52
						C343.125,265.408,341.56,264.476,340.656,264.28"/>
					<path style="fill:#F4C29D;" d="M340.781,269.515c-1.9-0.354-5.912-0.354-7.813,0c-0.904,0.168-2.469,0.973-2.469,2.173
						s1.564,2.005,2.469,2.173c1.9,0.352,5.912,0.352,7.813,0c0.904-0.168,2.469-0.973,2.469-2.173S341.685,269.683,340.781,269.515
						"/>
					<path style="fill:#F4C29D;" d="M340.652,273.84c-1.807-0.37-5.623-0.37-7.43,0c-0.86,0.176-2.348,1.017-2.348,2.271
						c0,1.256,1.487,2.098,2.348,2.273c1.807,0.369,5.623,0.369,7.43,0c0.86-0.176,2.348-1.018,2.348-2.273
						C343,274.856,341.513,274.016,340.652,273.84"/>
					<path style="fill:#F4C29D;" d="M341.287,278.417c-1.751-0.306-5.448-0.306-7.199,0c-0.834,0.147-2.275,0.843-2.275,1.882
						c0,1.04,1.441,1.737,2.275,1.883c1.751,0.306,5.448,0.306,7.199,0c0.834-0.146,2.275-0.843,2.275-1.883
						C343.563,279.26,342.121,278.564,341.287,278.417"/>
				</g>
			</g>
		</g>
		<g>
			<g>
				<g>
					<path style="fill:#D3562F;" d="M70.416,439.792h14.583c0,0,0.209,8.458,0.209,12.208s-0.417,4.292-2.667,4.917
						s-26.583,0-31.375,0s-6.583-5.625-3.583-8.709c3-3.083,9.041-4.041,12.916-4.541s8.334-0.792,8.875-1.75
						C69.916,440.958,70.416,439.792,70.416,439.792"/>
					<path style="fill:#ED8037;" d="M60.01,443.731c-3.878,0.519-9.549,1.52-12.426,4.477c-3,3.084-1.209,8.709,3.583,8.709
						c1.665,0,5.689,0.075,10.326,0.148C63.009,449.792,61.493,445.786,60.01,443.731"/>
					<path style="fill:#7A3026;" d="M82.541,456.917c2.155-0.599,2.627-1.129,2.663-4.468c-1.187,0.779-3.09,1.468-6.121,1.468
						c-6.495,0-27.114,2.435-32.918-1.407c0.292,2.324,2.086,4.407,5.001,4.407C55.958,456.917,80.291,457.542,82.541,456.917"/>
				</g>
				<g>
					<path style="fill:#D3562F;" d="M118.406,439.792h-14.583c0,0-0.209,8.458-0.209,12.208s0.417,4.292,2.667,4.917
						s26.583,0,31.375,0c4.792,0,6.583-5.625,3.583-8.709c-3-3.083-9.041-4.041-12.916-4.541s-8.334-0.792-8.875-1.75
						C118.906,440.958,118.406,439.792,118.406,439.792"/>
					<path style="fill:#ED8037;" d="M128.813,443.731c3.878,0.519,9.549,1.52,12.426,4.477c3,3.084,1.209,8.709-3.583,8.709
						c-1.665,0-5.69,0.075-10.326,0.148C125.813,449.792,127.33,445.786,128.813,443.731"/>
					<path style="fill:#7A3026;" d="M106.281,456.917c-2.155-0.599-2.627-1.129-2.663-4.468c1.187,0.779,3.09,1.468,6.121,1.468
						c6.496,0,27.114,2.435,32.918-1.407c-0.291,2.324-2.086,4.407-5.001,4.407C132.864,456.917,108.531,457.542,106.281,456.917"/>
				</g>
				<g>
					<path style="fill:#543229;" d="M97.25,319.375h23.5V442.5c0,0-1.75,0.875-6.5,1.25s-10.875-0.25-10.875-1
						s-0.75-108.375-0.75-108.375H86.25c0,0-1,106.75-1,107.75S71,444,68.125,442l-0.25-122.125L97.25,319.375z"/>
					<path style="fill:#3F231D;" d="M93,328c0.25,1,5.5,1,5.5-0.625v-8h-1.25l-4.311,0.073C92.886,322.67,92.838,327.353,93,328"/>
					<path style="fill:#3F231D;" d="M112.246,319.375c2.926,6.195,6.425,6.972,8.504,6.757v-6.757H112.246z"/>
					<path style="fill:#3F231D;" d="M75.522,319.745l-7.647,0.13l0.02,9.789C72.117,327.956,74.436,322.947,75.522,319.745"/>
				</g>
			</g>
			<g>
				<path style="fill:#89243A;" d="M109,235.834c0,0,9.333-2.667,14.583,8.833c4.25,9.585,8.334,33.168,8.334,33.168l16.666-18.75
					l10.084,7.5c0,0-15.917,20.332-22.667,26.082s-11.083,1.835-14.5-7.75c-3.417-9.582-8.333-26.5-8.333-26.5L109,235.834z"/>
				<path style="fill:#89243A;" d="M65.142,244.982c-0.081-3.513-5.101-4.94,4.483-8.419c5.517-2.003,16.343-1.896,23.875-1.896
					c6.747,0,13.146,0.199,17.558,0.38c3.373,0.138,6.085,2.815,6.276,6.186l4.362,76.903c0.165,2.912-2.152,5.364-5.069,5.364
					h-45.92c-2.061,0-3.745-1.646-3.793-3.706L65.142,244.982z"/>
			</g>
			<g>
				<g>
					<path style="fill:#F4C29D;" d="M92,242.25c4.211,0,7.187-1.578,7.187-5.375c0-0.707-0.104-1.441-0.298-2.167
						c-1.751-0.026-3.554-0.041-5.389-0.041c-2.731,0-5.899-0.018-9.088,0.055c-0.023,0.215-0.037,0.432-0.037,0.653
						C84.375,239.172,87.789,242.25,92,242.25"/>
					<polyline style="fill:#F4C29D;" points="87,237.334 87,229.584 97.167,229.584 97.167,236.584 					"/>
					<path style="fill:#D88A7D;" d="M97.167,236.014v-6.43H87v3.766C89.525,235.294,94.501,237.284,97.167,236.014z"/>
				</g>
				<g>
					<path style="fill:#543229;" d="M69.5,205.125c0,0-1.25,6.625-6.5,11.125l6,2.25l-2.75,3.375c0,0,2.875,2,12.375,1.5
						S72.375,197.125,69.5,205.125"/>
					<path style="fill:#F4C29D;" d="M71.625,178.334v31.417c0,13.024,10.385,23.583,23.194,23.583h4.263
						c9.55,0,17.293-7.873,17.293-17.583v-37.417H71.625z"/>
					<path style="fill:#D88A7D;" d="M79.941,189.783c5.351,1.379,10.83,1.946,16.322,2.427c6.589,0.577,13.457,1.018,20.112,0.228
						v-14.105h-44.75v8.606C74.353,188.332,77.666,189.197,79.941,189.783z"/>
					<path style="fill:#543229;" d="M68.5,209.125c0,0,9.125-10.875,7.5-29.125c0,0,12.208,8.833,40.25,9.125v8.125
						c0,0,4.833-1.667,5.375-7.292s-4.125-10.458-26.5-13.583s-32.875-2.25-32.75,7.875S63.25,206.5,68.5,209.125"/>
					<path style="fill:#F4C29D;" d="M72.688,202.563c0,0-0.312-8.313-7.75-6.812c-7.438,1.5-3.25,20.75,6.875,16.875"/>
					<path style="fill:#3F231D;" d="M64.875,201.563c-0.037,0.021-0.294-0.619,0.212-1.58c0.133-0.232,0.367-0.472,0.699-0.601
						c0.333-0.131,0.731-0.108,1.083,0.009c0.695,0.258,1.285,0.76,1.822,1.354c1.038,1.211,1.938,2.79,2.157,4.656
						c0.028,0.471,0.028,0.972-0.18,1.474c-0.074,0.254-0.26,0.484-0.429,0.701c-0.214,0.182-0.431,0.374-0.685,0.455
						c-0.49,0.22-0.974,0.258-1.491,0.175c-0.517-0.081-0.968-0.398-1.267-0.752c-0.616-0.729-0.713-1.547-0.672-2.231
						c0.067-0.688,0.411-1.339,0.952-1.652c0.487-0.279,0.954-0.344,1.374-0.276c0.413,0.074,0.695,0.278,0.87,0.453
						c0.349,0.363,0.409,0.625,0.425,0.77c0.009,0.149-0.051,0.203-0.12,0.233c-0.152,0.089-0.251-0.021-0.792-0.397
						c-0.27-0.163-0.669-0.274-1.22,0.077c-0.197,0.134-0.377,0.438-0.416,0.887c-0.017,0.434,0.075,1.02,0.434,1.421
						c0.318,0.418,0.919,0.534,1.5,0.301c0.534-0.159,0.745-0.815,0.706-1.57c-0.116-1.52-0.876-3.093-1.742-4.225
						c-0.439-0.563-0.946-1.041-1.446-1.279c-0.503-0.232-0.949-0.082-1.212,0.263C64.922,200.929,64.974,201.58,64.875,201.563"/>
					<path style="fill:#3F231D;" d="M83.938,196.375c-0.145-0.026,0.073-1.067,1.129-1.878c0.506-0.406,1.177-0.725,1.878-0.896
						c0.367-0.078,0.673-0.15,1.104-0.137c0.405,0.023,0.789,0.14,1.098,0.31c0.613,0.352,0.926,0.759,1.135,1.063
						c0.204,0.312,0.295,0.552,0.337,0.725c0.077,0.349-0.043,0.443-0.181,0.501c-0.142,0.06-0.271,0.087-0.498-0.122
						c-0.237-0.178-0.548-0.722-1.32-1.201c-0.388-0.225-0.831-0.25-1.473-0.146c-0.59,0.093-1.173,0.286-1.647,0.549
						C84.521,195.651,84.081,196.437,83.938,196.375"/>
					<path style="fill:#3F231D;" d="M112.938,196.25c-0.15,0.056-0.449-0.826-1.241-1.455c-0.765-0.666-2.039-0.438-2.912,0.069
						c-0.879,0.489-1.308,0.862-1.589,0.983c-0.277,0.134-0.392,0.066-0.508-0.034c-0.114-0.099-0.198-0.221-0.038-0.521
						c0.172-0.286,0.554-0.806,1.621-1.4c0.535-0.287,1.234-0.533,1.988-0.518c0.756-0.02,1.541,0.355,1.97,0.854
						C113.099,195.246,113.063,196.238,112.938,196.25"/>
					<path style="fill:#3F231D;" d="M100.188,214.438c-0.098-0.094,0.222-0.616,0.871-1.34c0.319-0.362,0.74-0.772,1.153-1.205
						c0.192-0.195,0.399-0.496,0.354-0.51c0.04,0.011-0.133-0.212-0.425-0.467c-0.636-0.637-0.899-1.313-1.159-1.919
						c-0.241-0.612-0.399-1.173-0.509-1.648c-0.216-0.953-0.231-1.566-0.098-1.599c0.137-0.034,0.394,0.508,0.775,1.376
						c0.191,0.432,0.413,0.948,0.682,1.496c0.268,0.532,0.587,1.162,0.998,1.559c0.087,0.101,0.291,0.251,0.427,0.435
						c0.143,0.167,0.319,0.459,0.295,0.808c-0.021,0.344-0.181,0.567-0.303,0.724c-0.13,0.165-0.259,0.285-0.383,0.404
						c-0.499,0.444-0.945,0.776-1.324,1.069C100.785,214.196,100.29,214.537,100.188,214.438"/>
					<path style="fill:#A53245;" d="M103.976,219.125H91.649c-0.738,0-1.337,0.574-1.337,1.281v0.094c0,3.452,2.92,6.25,6.522,6.25
						h1.858c3.656,0,6.62-2.84,6.62-6.344C105.313,219.699,104.713,219.125,103.976,219.125"/>
					<path style="fill:#C40C10;" d="M97.925,221.773c0.024,0.004,0.047,0.011,0.071,0.015c0.024,0.003,0.048,0.004,0.072,0.007
						L97.925,221.773z"/>
					<path style="fill:#EA4974;" d="M103.414,224.849c-1.291-1.537-3.333-2.716-5.418-3.061c-2.41-0.355-5.114,0.378-6.81,1.828
						c1.127,1.871,3.231,3.134,5.648,3.134h1.859C100.542,226.75,102.213,226.021,103.414,224.849"/>
					<path style="fill:#3F231D;" d="M108.375,202.375c0-1.623,0.644-2.938,1.437-2.938c0.794,0,1.438,1.315,1.438,2.938
						s-0.644,2.938-1.438,2.938C109.019,205.313,108.375,203.998,108.375,202.375"/>
					<path style="fill:#3F231D;" d="M86.563,202.688c0-1.623,0.644-2.938,1.437-2.938c0.794,0,1.438,1.315,1.438,2.938
						c0,1.623-0.644,2.938-1.438,2.938C87.206,205.626,86.563,204.311,86.563,202.688"/>
					<path style="fill:#E67E22;" d="M62.625,182.563h56.563c0,0,0.065-25.36-24.063-26.937C69,153.917,62.5,171.625,62.625,182.563"
						/>
					<path style="fill:#FFDD50;" d="M92.75,182.667c0,0,1.833-8.833,0.333-17.667c-1.5-8.833-8.333-8.833-8.333-8.833
						s1-1.75,7.333-1.583c3.13,0.082,6.529,0.26,9.25,1.75c2.786,1.525,4.866,4.409,5.667,8.666c1.583,8.417,0.5,17.584,0.5,17.584
						L92.75,182.667z"/>
					<path style="fill:#FFDD50;" d="M62.375,184.25c0,0,61.188,1.187,61.938,0.75c0.75-0.438-3-7.937-24.25-8.187
						c-12.001-0.063-10.813,3.25-17.126,3.499c-6.312,0.25-19.562,0.375-20.312,1S62.063,184.125,62.375,184.25"/>
				</g>
			</g>
			<g>
				<path style="fill:#ED8037;" d="M121.696,318.136l-4.361-76.902c-0.191-3.371-2.903-6.049-6.277-6.187
					c-2.823-0.116-6.465-0.238-10.487-0.312c4.382,10.767-5.071,19.14-5.071,19.14c-10.917-5.363-13.175-14.9-13.635-19.072
					c-4.728,0.194-9.265,0.656-12.24,1.76c-4.794,1.778-5.663,2.831-6.25,3.729c-0.792,1.212,1.722,2.755,1.767,4.69l1.773,74.812
					c0.047,2.061,1.731,3.706,3.792,3.706h45.921C119.544,323.5,121.861,321.048,121.696,318.136"/>
				<path style="fill:#FFDD50;" d="M118.209,256.653c-12.207,0.963-30.273,2.008-40.959,0.847
					c-4.612-0.501-8.542-1.165-11.855-1.866l0.86,36.318c5.701,0.392,15.352,0.815,29.495,0.673
					c15.6-0.157,21.416-0.658,24.386-1.996L118.209,256.653z"/>
				<path style="fill:#ED8037;" d="M119.438,278.33l-0.391-6.887c-2.178,0.555-5.237,0.98-9.547,1.057
					c-14.125,0.25-33.5,1.25-38.125,0.125c-1.754-0.427-3.777-0.978-5.614-1.501l0.188,7.935c1.782,0.464,4.158,0.87,7.301,1.066
					c10,0.625,35.25,0.25,40.625-0.5C115.689,279.372,117.643,278.875,119.438,278.33"/>
				<path style="fill:#D3562F;" d="M120.79,302.175c-0.004,0.001-0.009,0.003-0.013,0.004c-9.081,1.868-20.555-1.205-27.204-7.661
					c-5.828-5.659-7.829-12.738-9.882-20.318c-2.301-8.495-4.383-17.132-7.674-25.315c-1.378-3.429-3.64-9.134-7.168-12.026
					c-4.113,1.601-4.92,2.586-5.474,3.434c-0.792,1.212,1.722,2.755,1.767,4.69l1.773,74.812c0.047,2.061,1.731,3.706,3.792,3.706
					h45.921c2.916,0,5.233-2.452,5.068-5.364L120.79,302.175z"/>
				<path style="fill:#EAAA42;" d="M83.69,274.199c-1.491-5.505-2.896-11.067-4.591-16.528c-0.635-0.052-1.258-0.106-1.85-0.171
					c-4.612-0.501-8.542-1.165-11.855-1.866l0.86,36.318c5.157,0.354,13.559,0.733,25.582,0.697
					C87.324,287.334,85.524,280.968,83.69,274.199z"/>
				<path style="fill:#D3562F;" d="M83.69,274.199c-0.096-0.355-0.19-0.712-0.286-1.067c-5.605,0.062-10.101-0.038-12.029-0.507
					c-1.754-0.427-3.777-0.978-5.614-1.501l0.188,7.935c1.782,0.464,4.158,0.87,7.301,1.066c3.015,0.189,7.419,0.285,12.243,0.31
					C84.841,278.408,84.266,276.324,83.69,274.199z"/>
			</g>
			<g>
				<g>
					<path style="fill:#485CC1;" d="M98.709,298.375c0,0-2.625,10.292,1.958,12.125c4.584,1.833,7-11.208,4.452-11.605
						L98.709,298.375z"/>
					<path style="fill:#A5A39A;" d="M96.959,297.667l8.16,1.228c0,0-2.368-0.581-3.577,6.522l-8.916-1.334L96.959,297.667z"/>
					<path style="fill:#D3D1C9;" d="M103.75,295.5l-74.689-12.952c-1.058-0.184-2.147,0.107-2.948,0.821
						c-1.296,1.154-3.039,3.281-3.446,6.589c-0.667,5.417,1.833,6.917,1.833,6.917l76.812,13.833c0,0-3.604-0.333-2.312-8.125
						C99.909,297.1,103.75,295.5,103.75,295.5"/>
				</g>
				<g>
					<path style="fill:#5F7ADD;" d="M103.291,312.125c0,0-2.625,10.292,1.958,12.125c4.584,1.833,7-11.208,4.453-11.605
						L103.291,312.125z"/>
					<path style="fill:#D3D1C9;" d="M101.541,311.417l8.161,1.228c0,0-2.369-0.581-3.578,6.522l-8.916-1.334L101.541,311.417z"/>
					<path style="fill:#FFFFFF;" d="M108.333,309.25l-74.689-15.952c-1.058-0.184-2.147,0.107-2.948,0.821
						c-1.296,1.154-3.039,3.281-3.446,6.589c-0.667,5.417,1.833,6.917,1.833,6.917l76.812,16.833c0,0-3.604-0.333-2.312-8.125
						C104.493,310.85,108.333,309.25,108.333,309.25"/>
					<path style="fill:#F7F6F0;" d="M103.403,320.906c-11.486-1.727-22.934-3.712-34.258-6.295
						c-6.354-1.45-12.592-3.289-18.91-4.865c-3.487-0.87-6.981-1.743-10.374-2.94c-3.799-1.341-10.175-3.737-12.237-7.835
						c-0.161,0.542-0.297,1.112-0.374,1.737c-0.667,5.417,1.833,6.917,1.833,6.917l76.615,16.79
						C105.184,324.272,103.787,323.636,103.403,320.906z"/>
				</g>
			</g>
			<g>
				<g>
					<path style="fill:#F4C29D;" d="M66.084,309.417c2.833-2.584,7.083-3.25,10.167-2.084c3.083,1.167,7.708,3.792,9.5,3.959
						c1.791,0.166,1.208,3.541-2.5,2.708c-3.709-0.833-5.667-1.542-5.667-1.542s3.208,4.167,7.417,7.959
						c4.208,3.791,4.25,5.25,3.291,6.5c-0.958,1.25-2.958,1.25-9.041-5l-6.75,3.5c0,0,3.875,3.125,3.208,4.541
						c-0.31,0.659-2.417,3.584-8.292-3.166s-7.208-13.209-5.958-14.667S66.084,309.417,66.084,309.417"/>
					<path style="fill:#F4C29D;" d="M71.209,325.667c0,0,3.167,3.875,5.583,4.75c2.417,0.875,4.667-0.584,4.084-1.417
						c-0.584-0.833-5.417-5.167-5.417-5.167"/>
					<path style="fill:#F4C29D;" d="M74.959,323.458c0,0,4.875,5.959,7.167,6.209c2.291,0.25,4-1.917,2.916-2.709
						c-1.083-0.791-6.041-5.541-6.041-5.541"/>
				</g>
				<path style="fill:#A53245;" d="M69.625,257.75c0.375-9.375-3.792-19.167-6.25-17.458c-3.378,2.347-18.25,32.833-18.5,36.708
					s-2.625,6.625,5.5,21s9.75,16.125,9.75,16.125s7.625,0.625,10.125-7.25c0,0-11.5-23.375-11.5-25.125
					S69.625,257.75,69.625,257.75"/>
			</g>
			<g>
				<path style="fill:#F4C29D;" d="M170.208,255.708c-2.042,1.5-9.292-2.208-9.917-3.25c-0.625-1.041,3-2.416,6.5-4.75
					c3.5-2.333,1.709-5.667-2.166-3.667c-3.047,1.573-9.902,5.925-12.696,7.715c0.083-0.805,0.529-2.312,0.654-4.423
					c0.167-2.833-1.75-4.583-3.75-3.833s-1.083,5.416-1.417,10.25c-0.333,4.833-1.5,7.917,3.167,12.833c0,0,3.167,3.375,8.667,1.625
					c5.5-1.75,12.958-8.458,13.791-10.25C173.875,256.167,172.25,254.208,170.208,255.708"/>
				<path style="fill:#F4C29D;" d="M164.125,259.5c0,0,7.625-4.167,9.958-6.625c2.334-2.458-0.166-4.333-3.083-2.583
					s-8.042,5.041-8.042,5.041"/>
				<path style="fill:#F4C29D;" d="M159.5,251.542c0,0,7.292-4.458,9.833-5.667c2.542-1.208,5.209,1.334,2.25,3.792
					c-2.958,2.458-8.75,5.708-8.75,5.708"/>
			</g>
		</g>
		<g>
			<path style="fill:#FFFFFF;" d="M79.918,131.05c-0.499,0-0.985,0.049-1.461,0.125c0.109-0.651,0.182-1.314,0.182-1.995
				c0-6.984-5.994-12.646-13.388-12.646c-5.731,0-10.607,3.409-12.517,8.191c-1.699-0.821-3.618-1.292-5.657-1.292
				c-6.122,0-11.202,4.171-12.254,9.667c-1.187-0.501-2.519-0.791-3.934-0.791c-4.91,0-8.89,3.396-8.89,7.584s3.98,7.583,8.89,7.583
				h49.029c4.802,0,8.695-3.677,8.695-8.213S84.72,131.05,79.918,131.05"/>
			<path style="fill:#FFFFFF;" d="M330.506,52.17c0-4.254,4.179-7.703,9.332-7.703c0.965,0,1.897,0.122,2.773,0.346
				c-0.045-0.368-0.068-0.743-0.068-1.122c0-6.175,6.065-11.182,13.546-11.182c5.531,0,10.28,2.74,12.385,6.663
				c1.276-0.359,2.639-0.563,4.062-0.563c6.195,0,11.334,3.689,12.398,8.549c1.201-0.443,2.55-0.7,3.98-0.7
				c4.969,0,8.997,3.002,8.997,6.707c0,3.704-4.028,6.706-8.997,6.706h-49.609v-0.021C334.4,59.622,330.506,56.276,330.506,52.17"/>
			<path style="fill:#FFFFFF;" d="M486.861,143.256c0-3.921-3.365-7.099-7.517-7.099c-0.775,0-1.523,0.111-2.228,0.316
				c0-0.012,0.002-0.022,0.002-0.035c0-5.775-4.956-10.456-11.07-10.456c-4.474,0-8.318,2.511-10.064,6.118
				c-0.237-0.017-0.475-0.033-0.717-0.033c-4.657,0-8.52,3.172-9.32,7.353c-0.903-0.381-1.917-0.601-2.992-0.601
				c-3.735,0-6.763,2.583-6.763,5.768c0,3.185,3.027,5.768,6.763,5.768h37.292V150.3
				C483.972,149.878,486.861,146.888,486.861,143.256"/>
			<path style="fill:#A2BFF4;" d="M185.149,46.461c-0.205-5.737-5.789-10.194-12.47-9.955c-1.463,0.053-2.85,0.336-4.133,0.792
				c0.002-0.215,0.02-0.427,0.012-0.644c-0.284-7.931-7.515-14.108-16.15-13.798c-6.202,0.222-11.425,3.736-13.781,8.632
				c-1.902-0.737-3.999-1.125-6.203-1.046c-7.566,0.271-13.59,5.795-14.053,12.6c-1.56-0.601-3.331-0.912-5.199-0.845
				c-6.01,0.215-10.744,4.245-10.574,9.001c0.17,4.756,5.181,8.436,11.191,8.22l60.004-2.149l-0.001-0.016
				C180.296,56.85,185.352,52.091,185.149,46.461"/>
		</g>
	</g>
</g>
</svg>
