<svg xmlns="http://www.w3.org/2000/svg" shape-rendering="geometricPrecision" text-rendering="geometricPrecision" image-rendering="optimizeQuality" fill-rule="evenodd" clip-rule="evenodd" viewBox="0 0 512 466.034"><path fill="#0183E5" d="M407.944 389.964c-10.427-14.041-21.175-28.936-25.608-36.762-11.17-19.56-38.573-22.839-39.743-14.409-.464 3.338 5.327 14.432 12.987 27.255 17.661 29.563 47.32 74.932 76.335 93.533 6.596 4.229 13.085 6.799 18.889 6.415 4.445-.293 7.708-2.788 9.367-8.266 15.214-39.597 31.854-74.427 50.414-102.836 1.346-2.42 1.695-4.619 1.203-6.63-1.64-6.713-15.648-12.587-21.59-14.458-8.554-2.694-13.591-1.685-18.339 5.18-9.347 13.517-16.23 29.001-22.912 44.549-7.208-111.915-54.801-204.033-126.755-269.945C242.587 40.67 133.201-.088 15.806 0 9.083.005 5.309.578 2.493 4.082-.05 7.246-.219 11.224.144 18.201.708 29.016 2.768 35.03 9.34 39.01c5.621 3.404 13.818 4.255 27.424 5.082 4.014.243 8.023.617 12.038.884 98.579 6.55 189.551 45.369 255.347 110.108 59.538 58.58 98.481 138.446 103.795 234.88z"/></svg>